<?xml version="1.0" encoding="UTF-8"?>
<svg xmlns="http://www.w3.org/2000/svg" xmlns:xlink="http://www.w3.org/1999/xlink" width="612pt" height="792pt" viewBox="0 0 612 792" version="1.1">
<g id="surface1">
<path style=" stroke:none;fill-rule:evenodd;fill:rgb(83.48999%,82.594299%,82.424927%);fill-opacity:1;" d="M 276.535156 384.128906 L 276.367188 333.800781 C 277.042969 334.066406 317.914062 384.792969 322.8125 390.886719 C 323.996094 392.34375 325.515625 393.929688 326.867188 395.386719 C 327.542969 396.316406 328.050781 396.710938 328.894531 397.640625 C 333.621094 402.9375 331.933594 401.746094 340.714844 403.335938 C 341.054688 403.46875 341.898438 403.730469 342.40625 403.46875 C 342.742188 403.335938 342.910156 403.335938 342.910156 402.671875 C 343.082031 401.214844 342.742188 401.746094 342.574219 401.480469 L 342.574219 402.9375 C 340.378906 402.804688 337.339844 402.144531 335.144531 401.746094 C 332.101562 400.949219 331.597656 399.890625 330.074219 398.171875 C 327.371094 395.121094 325.007812 392.210938 322.136719 389.03125 C 316.902344 382.9375 312.003906 376.316406 306.769531 370.089844 L 280.082031 337.113281 C 278.898438 335.523438 277.546875 333.667969 276.195312 332.34375 C 275.691406 340.6875 276.195312 349.960938 276.195312 358.304688 C 276.195312 361.746094 275.691406 382.804688 276.535156 384.128906 "/>
<path style="fill:none;stroke-width:0.0028;stroke-linecap:butt;stroke-linejoin:miter;stroke:rgb(83.48999%,82.594299%,82.424927%);stroke-opacity:1;stroke-miterlimit:2.61313;" d="M 2765.351562 4078.710938 L 2763.671875 4581.992188 C 2770.429688 4579.335938 3179.140625 4072.070312 3228.125 4011.132812 C 3239.960938 3996.5625 3255.15625 3980.703125 3268.671875 3966.132812 C 3275.429688 3956.835938 3280.507812 3952.890625 3288.945312 3943.59375 C 3336.210938 3890.625 3319.335938 3902.539062 3407.148438 3886.640625 C 3410.546875 3885.3125 3418.984375 3882.695312 3424.0625 3885.3125 C 3427.421875 3886.640625 3429.101562 3886.640625 3429.101562 3893.28125 C 3430.820312 3907.851562 3427.421875 3902.539062 3425.742188 3905.195312 L 3425.742188 3890.625 C 3403.789062 3891.953125 3373.398438 3898.554688 3351.445312 3902.539062 C 3321.015625 3910.507812 3315.976562 3921.09375 3300.742188 3938.28125 C 3273.710938 3968.789062 3250.078125 3997.890625 3221.367188 4029.6875 C 3169.023438 4090.625 3120.039062 4156.835938 3067.695312 4219.101562 L 2800.820312 4548.867188 C 2788.984375 4564.765625 2775.46875 4583.320312 2761.953125 4596.5625 C 2756.914062 4513.125 2761.953125 4420.390625 2761.953125 4336.953125 C 2761.953125 4302.539062 2756.914062 4091.953125 2765.351562 4078.710938 Z M 2765.351562 4078.710938 " transform="matrix(0.1,0,0,-0.1,0,792)"/>
<path style=" stroke:none;fill-rule:evenodd;fill:rgb(83.48999%,82.594299%,82.424927%);fill-opacity:1;" d="M 87.199219 383.46875 L 86.355469 384.660156 C 77.742188 399.363281 61.527344 405.1875 44.128906 403.863281 C 37.035156 403.335938 30.449219 402.144531 23.695312 400.421875 C 16.601562 398.566406 18.964844 398.699219 19.472656 390.488281 C 19.640625 387.972656 19.808594 385.453125 19.976562 383.070312 C 20.148438 380.421875 20.316406 377.90625 20.316406 375.257812 C 20.484375 372.605469 20.148438 369.828125 20.316406 367.308594 C 19.808594 367.839844 19.808594 367.839844 19.808594 368.898438 L 19.976562 374.992188 C 19.976562 377.773438 19.640625 380.023438 19.640625 382.539062 C 19.472656 385.191406 19.300781 387.972656 19.132812 390.488281 L 18.289062 397.773438 C 18.289062 399.890625 20.992188 400.554688 23.1875 400.949219 C 25.046875 401.480469 27.410156 402.011719 29.605469 402.539062 C 47.847656 406.382812 67.269531 406.382812 80.445312 392.871094 C 81.796875 391.546875 86.863281 385.984375 87.199219 383.46875 "/>
<path style="fill:none;stroke-width:0.0028;stroke-linecap:butt;stroke-linejoin:miter;stroke:rgb(83.48999%,82.594299%,82.424927%);stroke-opacity:1;stroke-miterlimit:2.61313;" d="M 871.992188 4085.3125 L 863.554688 4073.398438 C 777.421875 3926.367188 615.273438 3868.125 441.289062 3881.367188 C 370.351562 3886.640625 304.492188 3898.554688 236.953125 3915.78125 C 166.015625 3934.335938 189.648438 3933.007812 194.726562 4015.117188 C 196.40625 4040.273438 198.085938 4065.46875 199.765625 4089.296875 C 201.484375 4115.78125 203.164062 4140.9375 203.164062 4167.421875 C 204.84375 4193.945312 201.484375 4221.71875 203.164062 4246.914062 C 198.085938 4241.601562 198.085938 4241.601562 198.085938 4231.015625 L 199.765625 4170.078125 C 199.765625 4142.265625 196.40625 4119.765625 196.40625 4094.609375 C 194.726562 4068.085938 193.007812 4040.273438 191.328125 4015.117188 L 182.890625 3942.265625 C 182.890625 3921.09375 209.921875 3914.453125 231.875 3910.507812 C 250.46875 3905.195312 274.101562 3899.882812 296.054688 3894.609375 C 478.476562 3856.171875 672.695312 3856.171875 804.453125 3991.289062 C 817.96875 4004.53125 868.632812 4060.15625 871.992188 4085.3125 Z M 871.992188 4085.3125 " transform="matrix(0.1,0,0,-0.1,0,792)"/>
<path style=" stroke:none;fill-rule:evenodd;fill:rgb(83.48999%,82.594299%,82.424927%);fill-opacity:1;" d="M 75.546875 367.707031 C 72.84375 358.699219 55.617188 356.582031 47.003906 354.328125 C 35.011719 351.019531 27.410156 348.898438 22.003906 338.703125 C 21.835938 338.304688 22.003906 338.4375 21.835938 338.171875 C 21.496094 337.90625 21.667969 338.039062 21.328125 337.773438 C 21.328125 339.761719 24.03125 343.203125 25.214844 344.53125 C 30.617188 350.621094 38.21875 352.476562 46.328125 354.859375 C 55.617188 357.507812 69.296875 358.699219 74.027344 366.117188 C 75.378906 367.972656 74.363281 367.441406 75.546875 367.707031 "/>
<path style="fill:none;stroke-width:0.0028;stroke-linecap:butt;stroke-linejoin:miter;stroke:rgb(83.48999%,82.594299%,82.424927%);stroke-opacity:1;stroke-miterlimit:2.61313;" d="M 755.46875 4242.929688 C 728.4375 4333.007812 556.171875 4354.179688 470.039062 4376.71875 C 350.117188 4409.804688 274.101562 4431.015625 220.039062 4532.96875 C 218.359375 4536.953125 220.039062 4535.625 218.359375 4538.28125 C 214.960938 4540.9375 216.679688 4539.609375 213.28125 4542.265625 C 213.28125 4522.382812 240.3125 4487.96875 252.148438 4474.6875 C 306.171875 4413.789062 382.1875 4395.234375 463.28125 4371.40625 C 556.171875 4344.921875 692.96875 4333.007812 740.273438 4258.828125 C 753.789062 4240.273438 743.632812 4245.585938 755.46875 4242.929688 Z M 755.46875 4242.929688 " transform="matrix(0.1,0,0,-0.1,0,792)"/>
<path style=" stroke:none;fill-rule:evenodd;fill:rgb(83.48999%,82.594299%,82.424927%);fill-opacity:1;" d="M 203.402344 348.371094 C 204.414062 347.574219 204.414062 346.78125 205.089844 345.457031 L 208.46875 337.113281 C 208.976562 336.449219 208.636719 336.714844 209.3125 336.449219 L 216.070312 352.476562 C 217.253906 355.257812 222.488281 366.78125 222.65625 368.898438 C 223.839844 368.503906 223.164062 368.898438 223.164062 368.503906 C 223.164062 367.441406 209.820312 335.65625 209.144531 334.859375 C 208.46875 336.054688 203.738281 346.914062 203.402344 348.371094 "/>
<path style="fill:none;stroke-width:0.0028;stroke-linecap:butt;stroke-linejoin:miter;stroke:rgb(83.48999%,82.594299%,82.424927%);stroke-opacity:1;stroke-miterlimit:2.61313;" d="M 2034.023438 4436.289062 C 2044.140625 4444.257812 2044.140625 4452.1875 2050.898438 4465.429688 L 2084.6875 4548.867188 C 2089.765625 4555.507812 2086.367188 4552.851562 2093.125 4555.507812 L 2160.703125 4395.234375 C 2172.539062 4367.421875 2224.882812 4252.1875 2226.5625 4231.015625 C 2238.398438 4234.960938 2231.640625 4231.015625 2231.640625 4234.960938 C 2231.640625 4245.585938 2098.203125 4563.4375 2091.445312 4571.40625 C 2084.6875 4559.453125 2037.382812 4450.859375 2034.023438 4436.289062 Z M 2034.023438 4436.289062 " transform="matrix(0.1,0,0,-0.1,0,792)"/>
<path style=" stroke:none;fill-rule:evenodd;fill:rgb(83.48999%,82.594299%,82.424927%);fill-opacity:1;" d="M 254.746094 398.035156 L 254.914062 401.480469 L 239.378906 401.214844 C 234.140625 401.214844 228.90625 401.480469 223.671875 401.480469 L 223.839844 397.640625 C 223.164062 398.300781 223.5 397.109375 223.332031 398.699219 C 223.332031 398.699219 223.332031 399.625 223.332031 399.757812 C 223.332031 402.273438 223.332031 402.273438 225.359375 402.144531 C 226.035156 402.144531 226.878906 402.144531 227.554688 402.144531 C 228.738281 402.144531 230.089844 402.011719 231.269531 402.011719 L 251.199219 402.144531 C 252.550781 402.144531 254.242188 402.40625 254.914062 401.878906 C 255.421875 401.214844 255.421875 398.699219 254.746094 398.035156 "/>
<path style="fill:none;stroke-width:0.0028;stroke-linecap:butt;stroke-linejoin:miter;stroke:rgb(83.48999%,82.594299%,82.424927%);stroke-opacity:1;stroke-miterlimit:2.61313;" d="M 2547.460938 3939.648438 L 2549.140625 3905.195312 L 2393.789062 3907.851562 C 2341.40625 3907.851562 2289.0625 3905.195312 2236.71875 3905.195312 L 2238.398438 3943.59375 C 2231.640625 3936.992188 2235 3948.90625 2233.320312 3933.007812 C 2233.320312 3933.007812 2233.320312 3923.75 2233.320312 3922.421875 C 2233.320312 3897.265625 2233.320312 3897.265625 2253.59375 3898.554688 C 2260.351562 3898.554688 2268.789062 3898.554688 2275.546875 3898.554688 C 2287.382812 3898.554688 2300.898438 3899.882812 2312.695312 3899.882812 L 2511.992188 3898.554688 C 2525.507812 3898.554688 2542.421875 3895.9375 2549.140625 3901.210938 C 2554.21875 3907.851562 2554.21875 3933.007812 2547.460938 3939.648438 Z M 2547.460938 3939.648438 " transform="matrix(0.1,0,0,-0.1,0,792)"/>
<path style=" stroke:none;fill-rule:evenodd;fill:rgb(83.48999%,82.594299%,82.424927%);fill-opacity:1;" d="M 40.078125 305.589844 C 41.933594 305.324219 43.117188 302.941406 48.691406 301.882812 C 52.40625 301.21875 56.796875 301.351562 60.175781 302.28125 C 63.890625 303.207031 65.917969 304.265625 68.621094 305.988281 C 70.308594 307.179688 72.167969 308.769531 73.519531 310.226562 C 75.207031 312.347656 74.027344 311.683594 75.207031 312.078125 C 74.027344 307.710938 65.75 302.808594 60.175781 301.484375 C 54.265625 300.160156 44.636719 300.824219 40.585938 304.929688 C 40.078125 305.324219 40.414062 304.929688 40.078125 305.589844 "/>
<path style="fill:none;stroke-width:0.0028;stroke-linecap:butt;stroke-linejoin:miter;stroke:rgb(83.48999%,82.594299%,82.424927%);stroke-opacity:1;stroke-miterlimit:2.61313;" d="M 400.78125 4864.101562 C 419.335938 4866.757812 431.171875 4890.585938 486.914062 4901.171875 C 524.0625 4907.8125 567.96875 4906.484375 601.757812 4897.1875 C 638.90625 4887.929688 659.179688 4877.34375 686.210938 4860.117188 C 703.085938 4848.203125 721.679688 4832.304688 735.195312 4817.734375 C 752.070312 4796.523438 740.273438 4803.164062 752.070312 4799.21875 C 740.273438 4842.890625 657.5 4891.914062 601.757812 4905.15625 C 542.65625 4918.398438 446.367188 4911.757812 405.859375 4870.703125 C 400.78125 4866.757812 404.140625 4870.703125 400.78125 4864.101562 Z M 400.78125 4864.101562 " transform="matrix(0.1,0,0,-0.1,0,792)"/>
<path style=" stroke:none;fill-rule:evenodd;fill:rgb(83.48999%,82.594299%,82.424927%);fill-opacity:1;" d="M 287.34375 401.480469 C 282.953125 401.613281 278.222656 401.214844 273.496094 401.214844 C 268.933594 401.347656 264.375 401.480469 259.8125 401.480469 L 259.8125 397.90625 C 260.996094 397.90625 265.386719 398.171875 266.0625 397.507812 C 265.050781 397.375 260.660156 397.375 259.644531 397.640625 C 259.308594 398.566406 259.308594 400.023438 259.476562 400.949219 L 259.476562 401.746094 C 259.644531 401.746094 259.644531 401.878906 259.644531 402.011719 L 260.152344 402.144531 C 260.828125 402.273438 279.914062 401.878906 284.472656 402.144531 C 287.683594 402.273438 287.175781 402.40625 287.34375 401.480469 "/>
<path style="fill:none;stroke-width:0.0028;stroke-linecap:butt;stroke-linejoin:miter;stroke:rgb(83.48999%,82.594299%,82.424927%);stroke-opacity:1;stroke-miterlimit:2.61313;" d="M 2873.4375 3905.195312 C 2829.53125 3903.867188 2782.226562 3907.851562 2734.960938 3907.851562 C 2689.335938 3906.523438 2643.75 3905.195312 2598.125 3905.195312 L 2598.125 3940.9375 C 2609.960938 3940.9375 2653.867188 3938.28125 2660.625 3944.921875 C 2650.507812 3946.25 2606.601562 3946.25 2596.445312 3943.59375 C 2593.085938 3934.335938 2593.085938 3919.765625 2594.765625 3910.507812 L 2594.765625 3902.539062 C 2596.445312 3902.539062 2596.445312 3901.210938 2596.445312 3899.882812 L 2601.523438 3898.554688 C 2608.28125 3897.265625 2799.140625 3901.210938 2844.726562 3898.554688 C 2876.835938 3897.265625 2871.757812 3895.9375 2873.4375 3905.195312 Z M 2873.4375 3905.195312 " transform="matrix(0.1,0,0,-0.1,0,792)"/>
<path style=" stroke:none;fill-rule:evenodd;fill:rgb(83.48999%,82.594299%,82.424927%);fill-opacity:1;" d="M 390.035156 256.851562 C 391.554688 254.863281 389.527344 245.726562 401.519531 243.210938 C 405.40625 242.28125 408.953125 242.28125 413.175781 242.28125 C 415.371094 242.28125 424.488281 242.8125 425.671875 242.019531 C 426.179688 241.089844 426.179688 225.992188 425.671875 224.402344 C 424.828125 224.269531 424.320312 224.269531 423.644531 224.535156 L 425.503906 224.535156 C 425.839844 227.449219 426.011719 239.367188 425.503906 241.753906 C 419.761719 242.945312 405.066406 239.898438 396.789062 244.402344 C 392.0625 246.917969 390.203125 251.15625 390.035156 256.851562 "/>
<path style="fill:none;stroke-width:0.0028;stroke-linecap:butt;stroke-linejoin:miter;stroke:rgb(83.48999%,82.594299%,82.424927%);stroke-opacity:1;stroke-miterlimit:2.61313;" d="M 3900.351562 5351.484375 C 3915.546875 5371.367188 3895.273438 5462.734375 4015.195312 5487.890625 C 4054.0625 5497.1875 4089.53125 5497.1875 4131.757812 5497.1875 C 4153.710938 5497.1875 4244.882812 5491.875 4256.71875 5499.804688 C 4261.796875 5509.101562 4261.796875 5660.078125 4256.71875 5675.976562 C 4248.28125 5677.304688 4243.203125 5677.304688 4236.445312 5674.648438 L 4255.039062 5674.648438 C 4258.398438 5645.507812 4260.117188 5526.328125 4255.039062 5502.460938 C 4197.617188 5490.546875 4050.664062 5521.015625 3967.890625 5475.976562 C 3920.625 5450.820312 3902.03125 5408.4375 3900.351562 5351.484375 Z M 3900.351562 5351.484375 " transform="matrix(0.1,0,0,-0.1,0,792)"/>
<path style=" stroke:none;fill-rule:evenodd;fill:rgb(83.48999%,82.594299%,82.424927%);fill-opacity:1;" d="M 352.371094 552.070312 L 352.371094 544.652344 C 352.707031 544.785156 357.4375 549.816406 358.113281 550.613281 C 360.816406 553.394531 360.816406 554.453125 363.179688 554.453125 C 364.191406 554.453125 365.039062 554.453125 365.882812 554.320312 C 366.050781 553.394531 366.21875 553.660156 365.714844 553.128906 L 365.714844 553.792969 L 361.828125 553.792969 L 354.734375 545.976562 C 354.058594 545.316406 352.878906 543.992188 352.203125 543.59375 C 351.863281 544.519531 351.695312 551.671875 352.371094 552.070312 "/>
<path style="fill:none;stroke-width:0.0028;stroke-linecap:butt;stroke-linejoin:miter;stroke:rgb(83.48999%,82.594299%,82.424927%);stroke-opacity:1;stroke-miterlimit:2.61313;" d="M 3523.710938 2399.296875 L 3523.710938 2473.476562 C 3527.070312 2472.148438 3574.375 2421.835938 3581.132812 2413.867188 C 3608.164062 2386.054688 3608.164062 2375.46875 3631.796875 2375.46875 C 3641.914062 2375.46875 3650.390625 2375.46875 3658.828125 2376.796875 C 3660.507812 2386.054688 3662.1875 2383.398438 3657.148438 2388.710938 L 3657.148438 2382.070312 L 3618.28125 2382.070312 L 3547.34375 2460.234375 C 3540.585938 2466.835938 3528.789062 2480.078125 3522.03125 2484.0625 C 3518.632812 2474.804688 3516.953125 2403.28125 3523.710938 2399.296875 Z M 3523.710938 2399.296875 " transform="matrix(0.1,0,0,-0.1,0,792)"/>
<path style=" stroke:none;fill-rule:evenodd;fill:rgb(83.48999%,82.594299%,82.424927%);fill-opacity:1;" d="M 178.574219 548.628906 L 178.066406 549.15625 C 177.730469 549.421875 177.730469 549.554688 177.5625 549.816406 C 173.84375 554.851562 163.878906 555.246094 164.046875 543.59375 C 162.695312 544.917969 164.046875 548.757812 164.554688 549.816406 C 167.933594 556.574219 177.898438 553.527344 178.574219 548.628906 "/>
<path style="fill:none;stroke-width:0.0028;stroke-linecap:butt;stroke-linejoin:miter;stroke:rgb(83.48999%,82.594299%,82.424927%);stroke-opacity:1;stroke-miterlimit:2.61313;" d="M 1785.742188 2433.710938 L 1780.664062 2428.4375 C 1777.304688 2425.78125 1777.304688 2424.453125 1775.625 2421.835938 C 1738.4375 2371.484375 1638.789062 2367.539062 1640.46875 2484.0625 C 1626.953125 2470.820312 1640.46875 2432.421875 1645.546875 2421.835938 C 1679.335938 2354.257812 1778.984375 2384.726562 1785.742188 2433.710938 Z M 1785.742188 2433.710938 " transform="matrix(0.1,0,0,-0.1,0,792)"/>
<path style=" stroke:none;fill-rule:evenodd;fill:rgb(83.48999%,82.594299%,82.424927%);fill-opacity:1;" d="M 416.214844 551.539062 C 416.722656 548.492188 415.539062 541.34375 416.382812 538.691406 C 423.476562 537.5 423.140625 542.003906 424.488281 543.195312 C 423.984375 539.222656 420.773438 536.707031 416.214844 538.164062 C 415.707031 539.488281 415.875 545.976562 415.875 548.230469 C 415.875 549.023438 415.707031 551.011719 416.214844 551.539062 "/>
<path style="fill:none;stroke-width:0.0028;stroke-linecap:butt;stroke-linejoin:miter;stroke:rgb(83.48999%,82.594299%,82.424927%);stroke-opacity:1;stroke-miterlimit:2.61313;" d="M 4162.148438 2404.609375 C 4167.226562 2435.078125 4155.390625 2506.5625 4163.828125 2533.085938 C 4234.765625 2545 4231.40625 2499.960938 4244.882812 2488.046875 C 4239.84375 2527.773438 4207.734375 2552.929688 4162.148438 2538.359375 C 4157.070312 2525.117188 4158.75 2460.234375 4158.75 2437.695312 C 4158.75 2429.765625 4157.070312 2409.882812 4162.148438 2404.609375 Z M 4162.148438 2404.609375 " transform="matrix(0.1,0,0,-0.1,0,792)"/>
<path style=" stroke:none;fill-rule:evenodd;fill:rgb(83.48999%,82.594299%,82.424927%);fill-opacity:1;" d="M 166.242188 542.535156 C 167.425781 541.210938 166.75 540.148438 168.777344 538.824219 C 171.3125 537.367188 175.027344 538.164062 176.378906 542.136719 C 177.054688 544.519531 176.378906 545.84375 176.714844 547.699219 C 177.5625 547.300781 177.730469 540.148438 174.015625 538.164062 C 171.3125 536.707031 166.75 537.5 166.242188 542.535156 "/>
<path style="fill:none;stroke-width:0.0028;stroke-linecap:butt;stroke-linejoin:miter;stroke:rgb(83.48999%,82.594299%,82.424927%);stroke-opacity:1;stroke-miterlimit:2.61313;" d="M 1662.421875 2494.648438 C 1674.257812 2507.890625 1667.5 2518.515625 1687.773438 2531.757812 C 1713.125 2546.328125 1750.273438 2538.359375 1763.789062 2498.632812 C 1770.546875 2474.804688 1763.789062 2461.5625 1767.148438 2443.007812 C 1775.625 2446.992188 1777.304688 2518.515625 1740.15625 2538.359375 C 1713.125 2552.929688 1667.5 2545 1662.421875 2494.648438 Z M 1662.421875 2494.648438 " transform="matrix(0.1,0,0,-0.1,0,792)"/>
<path style=" stroke:none;fill-rule:evenodd;fill:rgb(83.48999%,82.594299%,82.424927%);fill-opacity:1;" d="M 335.816406 328.503906 C 335.816406 325.191406 334.296875 324.398438 330.414062 323.867188 C 328.894531 323.605469 327.542969 323.472656 325.851562 323.339844 C 324.332031 323.207031 324.671875 323.472656 324.671875 319.894531 C 323.828125 320.292969 324.164062 323.207031 324.503906 323.605469 C 325.179688 324.398438 329.230469 324.265625 331.597656 324.664062 C 332.441406 324.929688 333.621094 325.457031 334.296875 325.855469 C 335.144531 326.515625 335.144531 326.78125 335.3125 327.445312 L 335.816406 328.503906 "/>
<path style="fill:none;stroke-width:0.0028;stroke-linecap:butt;stroke-linejoin:miter;stroke:rgb(83.48999%,82.594299%,82.424927%);stroke-opacity:1;stroke-miterlimit:2.61313;" d="M 3358.164062 4634.960938 C 3358.164062 4668.085938 3342.96875 4676.015625 3304.140625 4681.328125 C 3288.945312 4683.945312 3275.429688 4685.273438 3258.515625 4686.601562 C 3243.320312 4687.929688 3246.71875 4685.273438 3246.71875 4721.054688 C 3238.28125 4717.070312 3241.640625 4687.929688 3245.039062 4683.945312 C 3251.796875 4676.015625 3292.304688 4677.34375 3315.976562 4673.359375 C 3324.414062 4670.703125 3336.210938 4665.429688 3342.96875 4661.445312 C 3351.445312 4654.84375 3351.445312 4652.1875 3353.125 4645.546875 Z M 3358.164062 4634.960938 " transform="matrix(0.1,0,0,-0.1,0,792)"/>
<path style=" stroke:none;fill-rule:evenodd;fill:rgb(83.48999%,82.594299%,82.424927%);fill-opacity:1;" d="M 447.796875 549.023438 L 447.289062 552.996094 C 450.332031 555.117188 457.761719 554.1875 457.933594 548.492188 C 458.101562 547.566406 458.101562 547.035156 457.59375 546.375 C 458.269531 552.863281 453.203125 554.320312 447.628906 552.46875 L 447.796875 549.023438 "/>
<path style="fill:none;stroke-width:0.0028;stroke-linecap:butt;stroke-linejoin:miter;stroke:rgb(83.48999%,82.594299%,82.424927%);stroke-opacity:1;stroke-miterlimit:2.61313;" d="M 4477.96875 2429.765625 L 4472.890625 2390.039062 C 4503.320312 2368.828125 4577.617188 2378.125 4579.335938 2435.078125 C 4581.015625 2444.335938 4581.015625 2449.648438 4575.9375 2456.25 C 4582.695312 2391.367188 4532.03125 2376.796875 4476.289062 2395.3125 Z M 4477.96875 2429.765625 " transform="matrix(0.1,0,0,-0.1,0,792)"/>
<path style=" stroke:none;fill-rule:evenodd;fill:rgb(83.48999%,82.594299%,82.424927%);fill-opacity:1;" d="M 412.835938 552.601562 C 412.667969 552.863281 412.496094 552.070312 412.667969 553.394531 C 414.1875 554.1875 420.4375 553.660156 421.957031 552.996094 C 423.984375 552.070312 426.347656 549.816406 426.515625 547.171875 L 425.839844 548.230469 C 423.308594 553.527344 419.59375 553.261719 413.003906 552.996094 L 412.835938 552.601562 "/>
<path style="fill:none;stroke-width:0.0028;stroke-linecap:butt;stroke-linejoin:miter;stroke:rgb(83.48999%,82.594299%,82.424927%);stroke-opacity:1;stroke-miterlimit:2.61313;" d="M 4128.359375 2393.984375 C 4126.679688 2391.367188 4124.960938 2399.296875 4126.679688 2386.054688 C 4141.875 2378.125 4204.375 2383.398438 4219.570312 2390.039062 C 4239.84375 2399.296875 4263.476562 2421.835938 4265.15625 2448.28125 L 4258.398438 2437.695312 C 4233.085938 2384.726562 4195.9375 2387.382812 4130.039062 2390.039062 Z M 4128.359375 2393.984375 " transform="matrix(0.1,0,0,-0.1,0,792)"/>
<path style=" stroke:none;fill-rule:evenodd;fill:rgb(83.48999%,82.594299%,82.424927%);fill-opacity:1;" d="M 270.625 330.621094 C 270.285156 326.914062 269.949219 325.855469 267.585938 324.398438 C 265.21875 322.675781 262.6875 323.605469 259.476562 323.074219 C 259.644531 323.472656 259.308594 323.339844 259.644531 323.867188 C 264.375 324 269.949219 323.074219 270.117188 330.753906 C 271.300781 331.285156 270.285156 330.886719 270.625 330.621094 "/>
<path style="fill:none;stroke-width:0.0028;stroke-linecap:butt;stroke-linejoin:miter;stroke:rgb(83.48999%,82.594299%,82.424927%);stroke-opacity:1;stroke-miterlimit:2.61313;" d="M 2706.25 4613.789062 C 2702.851562 4650.859375 2699.492188 4661.445312 2675.859375 4676.015625 C 2652.1875 4693.242188 2626.875 4683.945312 2594.765625 4689.257812 C 2596.445312 4685.273438 2593.085938 4686.601562 2596.445312 4681.328125 C 2643.75 4680 2699.492188 4689.257812 2701.171875 4612.460938 C 2713.007812 4607.148438 2702.851562 4611.132812 2706.25 4613.789062 Z M 2706.25 4613.789062 " transform="matrix(0.1,0,0,-0.1,0,792)"/>
<path style=" stroke:none;fill-rule:evenodd;fill:rgb(83.48999%,82.594299%,82.424927%);fill-opacity:1;" d="M 455.398438 550.347656 C 455.90625 549.949219 455.398438 550.878906 455.90625 549.816406 C 456.074219 549.023438 455.90625 547.566406 455.398438 546.90625 C 453.203125 544.386719 447.460938 548.230469 447.460938 540.8125 C 446.785156 541.871094 447.121094 543.726562 447.796875 544.652344 C 448.304688 545.710938 449.148438 546.109375 450.671875 546.375 C 453.710938 546.90625 456.074219 546.242188 455.398438 550.347656 "/>
<path style="fill:none;stroke-width:0.0028;stroke-linecap:butt;stroke-linejoin:miter;stroke:rgb(83.48999%,82.594299%,82.424927%);stroke-opacity:1;stroke-miterlimit:2.61313;" d="M 4553.984375 2416.523438 C 4559.0625 2420.507812 4553.984375 2411.210938 4559.0625 2421.835938 C 4560.742188 2429.765625 4559.0625 2444.335938 4553.984375 2450.9375 C 4532.03125 2476.132812 4474.609375 2437.695312 4474.609375 2511.875 C 4467.851562 2501.289062 4471.210938 2482.734375 4477.96875 2473.476562 C 4483.046875 2462.890625 4491.484375 2458.90625 4506.71875 2456.25 C 4537.109375 2450.9375 4560.742188 2457.578125 4553.984375 2416.523438 Z M 4553.984375 2416.523438 " transform="matrix(0.1,0,0,-0.1,0,792)"/>
<path style=" stroke:none;fill-rule:evenodd;fill:rgb(83.48999%,82.594299%,82.424927%);fill-opacity:1;" d="M 217.589844 553.128906 L 214.886719 553.128906 C 213.875 551.671875 213.027344 550.347656 212.015625 548.890625 C 211.339844 547.699219 209.480469 545.449219 209.3125 544.253906 C 208.808594 544.917969 208.976562 543.460938 208.976562 545.183594 L 213.875 552.730469 C 214.378906 553.394531 214.042969 553.128906 214.71875 553.660156 C 215.394531 553.925781 216.574219 553.792969 217.589844 553.792969 C 217.757812 553.527344 217.589844 553.660156 217.589844 553.128906 "/>
<path style="fill:none;stroke-width:0.0028;stroke-linecap:butt;stroke-linejoin:miter;stroke:rgb(83.48999%,82.594299%,82.424927%);stroke-opacity:1;stroke-miterlimit:2.61313;" d="M 2175.898438 2388.710938 L 2148.867188 2388.710938 C 2138.75 2403.28125 2130.273438 2416.523438 2120.15625 2431.09375 C 2113.398438 2443.007812 2094.804688 2465.507812 2093.125 2477.460938 C 2088.085938 2470.820312 2089.765625 2485.390625 2089.765625 2468.164062 L 2138.75 2392.695312 C 2143.789062 2386.054688 2140.429688 2388.710938 2147.1875 2383.398438 C 2153.945312 2380.742188 2165.742188 2382.070312 2175.898438 2382.070312 C 2177.578125 2384.726562 2175.898438 2383.398438 2175.898438 2388.710938 Z M 2175.898438 2388.710938 " transform="matrix(0.1,0,0,-0.1,0,792)"/>
<path style=" stroke:none;fill-rule:evenodd;fill:rgb(83.48999%,82.594299%,82.424927%);fill-opacity:1;" d="M 355.410156 542.535156 C 355.242188 541.738281 355.578125 541.605469 356.253906 540.945312 L 359.972656 537.105469 C 363.855469 532.996094 363.179688 534.851562 364.699219 534.058594 C 365.039062 533.792969 365.207031 533.660156 365.375 533.261719 C 365.375 531.410156 365.375 532.867188 364.867188 532.335938 L 365.039062 533.394531 C 363.011719 533.527344 362.671875 533.660156 361.660156 534.851562 C 359.800781 536.707031 355.242188 540.8125 354.734375 542.269531 L 355.410156 542.535156 "/>
<path style="fill:none;stroke-width:0.0028;stroke-linecap:butt;stroke-linejoin:miter;stroke:rgb(83.48999%,82.594299%,82.424927%);stroke-opacity:1;stroke-miterlimit:2.61313;" d="M 3554.101562 2494.648438 C 3552.421875 2502.617188 3555.78125 2503.945312 3562.539062 2510.546875 L 3599.726562 2548.945312 C 3638.554688 2590.039062 3631.796875 2571.484375 3646.992188 2579.414062 C 3650.390625 2582.070312 3652.070312 2583.398438 3653.75 2587.382812 C 3653.75 2605.898438 3653.75 2591.328125 3648.671875 2596.640625 L 3650.390625 2586.054688 C 3630.117188 2584.726562 3626.71875 2583.398438 3616.601562 2571.484375 C 3598.007812 2552.929688 3552.421875 2511.875 3547.34375 2497.304688 Z M 3554.101562 2494.648438 " transform="matrix(0.1,0,0,-0.1,0,792)"/>
<path style=" stroke:none;fill-rule:evenodd;fill:rgb(83.48999%,82.594299%,82.424927%);fill-opacity:1;" d="M 129.929688 535.117188 C 131.113281 534.453125 133.648438 534.453125 135.167969 534.71875 C 137.867188 535.25 135.167969 537.632812 137.699219 537.898438 L 138.039062 537.105469 L 137.023438 537.105469 L 136.855469 534.453125 C 134.996094 533.660156 132.296875 533.792969 130.101562 534.058594 L 129.929688 535.117188 "/>
<path style="fill:none;stroke-width:0.0028;stroke-linecap:butt;stroke-linejoin:miter;stroke:rgb(83.48999%,82.594299%,82.424927%);stroke-opacity:1;stroke-miterlimit:2.61313;" d="M 1299.296875 2568.828125 C 1311.132812 2575.46875 1336.484375 2575.46875 1351.679688 2572.8125 C 1378.671875 2567.5 1351.679688 2543.671875 1376.992188 2541.015625 L 1380.390625 2548.945312 L 1370.234375 2548.945312 L 1368.554688 2575.46875 C 1349.960938 2583.398438 1322.96875 2582.070312 1301.015625 2579.414062 Z M 1299.296875 2568.828125 " transform="matrix(0.1,0,0,-0.1,0,792)"/>
<path style=" stroke:none;fill-rule:evenodd;fill:rgb(83.48999%,82.594299%,82.424927%);fill-opacity:1;" d="M 130.101562 551.539062 L 130.269531 544.386719 C 131.113281 544.253906 132.296875 544.253906 133.140625 544.253906 C 133.648438 544.386719 134.152344 544.386719 134.660156 544.519531 L 135.675781 544.917969 L 135.503906 543.992188 C 133.984375 543.460938 131.789062 543.59375 129.929688 543.726562 L 129.761719 549.6875 C 129.761719 550.480469 129.761719 551.011719 130.101562 551.539062 "/>
<path style="fill:none;stroke-width:0.0028;stroke-linecap:butt;stroke-linejoin:miter;stroke:rgb(83.48999%,82.594299%,82.424927%);stroke-opacity:1;stroke-miterlimit:2.61313;" d="M 1301.015625 2404.609375 L 1302.695312 2476.132812 C 1311.132812 2477.460938 1322.96875 2477.460938 1331.40625 2477.460938 C 1336.484375 2476.132812 1341.523438 2476.132812 1346.601562 2474.804688 L 1356.757812 2470.820312 L 1355.039062 2480.078125 C 1339.84375 2485.390625 1317.890625 2484.0625 1299.296875 2482.734375 L 1297.617188 2423.125 C 1297.617188 2415.195312 1297.617188 2409.882812 1301.015625 2404.609375 Z M 1301.015625 2404.609375 " transform="matrix(0.1,0,0,-0.1,0,792)"/>
<path style=" stroke:none;fill-rule:evenodd;fill:rgb(83.48999%,82.594299%,82.424927%);fill-opacity:1;" d="M 132.464844 552.601562 L 132.632812 553.792969 L 124.527344 553.792969 L 124.695312 552.730469 C 124.1875 553.128906 124.527344 552.070312 124.1875 553.394531 C 124.019531 554.054688 124.1875 553.792969 124.355469 554.1875 C 125.203125 554.71875 131.789062 554.585938 132.800781 554.1875 C 133.140625 552.46875 132.632812 552.863281 132.464844 552.601562 "/>
<path style="fill:none;stroke-width:0.0028;stroke-linecap:butt;stroke-linejoin:miter;stroke:rgb(83.48999%,82.594299%,82.424927%);stroke-opacity:1;stroke-miterlimit:2.61313;" d="M 1324.648438 2393.984375 L 1326.328125 2382.070312 L 1245.273438 2382.070312 L 1246.953125 2392.695312 C 1241.875 2388.710938 1245.273438 2399.296875 1241.875 2386.054688 C 1240.195312 2379.453125 1241.875 2382.070312 1243.554688 2378.125 C 1252.03125 2372.8125 1317.890625 2374.140625 1328.007812 2378.125 C 1331.40625 2395.3125 1326.328125 2391.367188 1324.648438 2393.984375 Z M 1324.648438 2393.984375 " transform="matrix(0.1,0,0,-0.1,0,792)"/>
<path style=" stroke:none;fill-rule:evenodd;fill:rgb(83.48999%,82.594299%,82.424927%);fill-opacity:1;" d="M 354.398438 552.730469 L 354.566406 553.792969 L 346.796875 553.792969 L 346.964844 552.730469 C 346.964844 552.730469 346.289062 552.863281 346.460938 553.925781 C 346.628906 554.320312 346.796875 554.320312 347.472656 554.453125 L 353.554688 554.453125 C 354.566406 554.453125 355.074219 554.1875 354.902344 553.261719 C 354.734375 552.601562 354.902344 552.996094 354.398438 552.730469 "/>
<path style="fill:none;stroke-width:0.0028;stroke-linecap:butt;stroke-linejoin:miter;stroke:rgb(83.48999%,82.594299%,82.424927%);stroke-opacity:1;stroke-miterlimit:2.61313;" d="M 3543.984375 2392.695312 L 3545.664062 2382.070312 L 3467.96875 2382.070312 L 3469.648438 2392.695312 C 3469.648438 2392.695312 3462.890625 2391.367188 3464.609375 2380.742188 C 3466.289062 2376.796875 3467.96875 2376.796875 3474.726562 2375.46875 L 3535.546875 2375.46875 C 3545.664062 2375.46875 3550.742188 2378.125 3549.023438 2387.382812 C 3547.34375 2393.984375 3549.023438 2390.039062 3543.984375 2392.695312 Z M 3543.984375 2392.695312 " transform="matrix(0.1,0,0,-0.1,0,792)"/>
<path style=" stroke:none;fill-rule:evenodd;fill:rgb(83.48999%,82.594299%,82.424927%);fill-opacity:1;" d="M 208.46875 538.957031 C 212.183594 537.765625 213.535156 538.824219 213.367188 542.402344 C 213.703125 542.003906 213.875 541.738281 213.703125 540.28125 C 213.367188 537.367188 210.664062 537.765625 208.636719 538.164062 L 208.46875 538.957031 "/>
<path style="fill:none;stroke-width:0.0028;stroke-linecap:butt;stroke-linejoin:miter;stroke:rgb(83.48999%,82.594299%,82.424927%);stroke-opacity:1;stroke-miterlimit:2.61313;" d="M 2084.6875 2530.429688 C 2121.835938 2542.34375 2135.351562 2531.757812 2133.671875 2495.976562 C 2137.03125 2499.960938 2138.75 2502.617188 2137.03125 2517.1875 C 2133.671875 2546.328125 2106.640625 2542.34375 2086.367188 2538.359375 Z M 2084.6875 2530.429688 " transform="matrix(0.1,0,0,-0.1,0,792)"/>
<path style=" stroke:none;fill-rule:evenodd;fill:rgb(33.639526%,11.956787%,41.900635%);fill-opacity:1;" d="M 281.601562 469.953125 C 283.628906 470.484375 284.8125 473.53125 284.8125 476.046875 C 284.8125 477.371094 284.472656 478.695312 283.964844 479.621094 C 283.460938 480.285156 282.109375 481.476562 281.265625 480.683594 C 279.238281 480.550781 277.71875 477.238281 277.71875 474.589844 C 277.71875 472.207031 279.070312 468.496094 281.601562 469.953125 Z M 252.214844 480.945312 C 251.707031 486.246094 250.863281 491.277344 250.691406 496.839844 C 250.523438 501.609375 250.1875 508.628906 250.863281 513.265625 C 250.355469 519.886719 253.394531 535.25 255.589844 542.796875 C 255.761719 543.726562 255.761719 543.992188 256.265625 544.386719 L 262.179688 536.574219 C 264.035156 533.925781 265.894531 531.011719 267.585938 528.097656 C 269.273438 525.050781 270.792969 522.269531 272.480469 519.089844 C 273.324219 517.632812 274.003906 516.175781 274.847656 514.589844 C 275.519531 513.132812 276.367188 511.144531 277.042969 509.953125 C 279.574219 502.800781 280.757812 505.316406 278.5625 499.753906 C 277.210938 496.3125 275.859375 493.132812 274.339844 489.820312 C 272.144531 485.054688 269.777344 480.417969 267.078125 475.914062 C 266.230469 474.457031 265.050781 472.734375 264.542969 471.277344 C 267.585938 473.132812 281.433594 496.046875 281.601562 498.03125 C 282.277344 497.503906 281.769531 498.164062 282.277344 497.238281 C 283.460938 495.25 288.863281 476.839844 289.371094 475.121094 C 290.722656 469.820312 294.101562 455.386719 294.605469 450.351562 C 295.113281 455.386719 292.242188 472.867188 291.058594 478.429688 C 290.214844 482.800781 289.203125 487.171875 288.1875 491.410156 C 287.34375 494.722656 285.992188 500.945312 284.640625 503.726562 C 284.8125 505.316406 286.164062 506.378906 286.164062 507.964844 C 287.175781 508.761719 288.1875 512.070312 288.695312 513.527344 C 293.761719 526.507812 298.660156 548.628906 296.464844 561.472656 L 287.851562 559.089844 C 289.539062 547.171875 287.851562 535.648438 285.824219 523.992188 C 285.148438 519.753906 283.460938 515.117188 282.445312 511.144531 L 281.769531 512.46875 C 279.238281 522.136719 269.441406 541.34375 263.359375 549.816406 C 262.855469 550.480469 260.488281 554.054688 259.984375 554.320312 C 260.152344 557.234375 265.894531 565.050781 267.246094 566.769531 C 275.015625 576.042969 285.316406 576.96875 293.761719 568.492188 C 295.113281 567.035156 296.804688 564.917969 298.152344 562.929688 C 299.335938 561.210938 301.363281 557.101562 302.039062 556.574219 C 302.039062 555.644531 303.558594 552.730469 304.066406 551.539062 C 306.09375 546.507812 307.78125 540.945312 308.964844 535.515625 C 310.3125 528.757812 312.171875 517.632812 312.003906 510.613281 C 312.171875 499.621094 311.664062 491.410156 310.3125 480.816406 C 310.144531 476.578125 308.117188 468.894531 306.9375 465.054688 C 303.558594 453.53125 295.28125 433.53125 281.09375 433.664062 C 262.855469 433.929688 254.410156 466.113281 252.214844 480.945312 "/>
<path style="fill:none;stroke-width:0.0028;stroke-linecap:butt;stroke-linejoin:miter;stroke:rgb(33.639526%,11.956787%,41.900635%);stroke-opacity:1;stroke-miterlimit:2.61313;" d="M 2816.015625 3220.46875 C 2836.289062 3215.15625 2848.125 3184.6875 2848.125 3159.53125 C 2848.125 3146.289062 2844.726562 3133.046875 2839.648438 3123.789062 C 2834.609375 3117.148438 2821.09375 3105.234375 2812.65625 3113.164062 C 2792.382812 3114.492188 2777.1875 3147.617188 2777.1875 3174.101562 C 2777.1875 3197.929688 2790.703125 3235.039062 2816.015625 3220.46875 Z M 2522.148438 3110.546875 C 2517.070312 3057.539062 2508.632812 3007.226562 2506.914062 2951.601562 C 2505.234375 2903.90625 2501.875 2833.710938 2508.632812 2787.34375 C 2503.554688 2721.132812 2533.945312 2567.5 2555.898438 2492.03125 C 2557.617188 2482.734375 2557.617188 2480.078125 2562.65625 2476.132812 L 2621.796875 2554.257812 C 2640.351562 2580.742188 2658.945312 2609.882812 2675.859375 2639.023438 C 2692.734375 2669.492188 2707.929688 2697.304688 2724.804688 2729.101562 C 2733.242188 2743.671875 2740.039062 2758.242188 2748.476562 2774.101562 C 2755.195312 2788.671875 2763.671875 2808.554688 2770.429688 2820.46875 C 2795.742188 2891.992188 2807.578125 2866.835938 2785.625 2922.460938 C 2772.109375 2956.875 2758.59375 2988.671875 2743.398438 3021.796875 C 2721.445312 3069.453125 2697.773438 3115.820312 2670.78125 3160.859375 C 2662.304688 3175.429688 2650.507812 3192.65625 2645.429688 3207.226562 C 2675.859375 3188.671875 2814.335938 2959.53125 2816.015625 2939.6875 C 2822.773438 2944.960938 2817.695312 2938.359375 2822.773438 2947.617188 C 2834.609375 2967.5 2888.632812 3151.601562 2893.710938 3168.789062 C 2907.226562 3221.796875 2941.015625 3366.132812 2946.054688 3416.484375 C 2951.132812 3366.132812 2922.421875 3191.328125 2910.585938 3135.703125 C 2902.148438 3091.992188 2892.03125 3048.28125 2881.875 3005.898438 C 2873.4375 2972.773438 2859.921875 2910.546875 2846.40625 2882.734375 C 2848.125 2866.835938 2861.640625 2856.210938 2861.640625 2840.351562 C 2871.757812 2832.382812 2881.875 2799.296875 2886.953125 2784.726562 C 2937.617188 2654.921875 2986.601562 2433.710938 2964.648438 2305.273438 L 2878.515625 2329.101562 C 2895.390625 2448.28125 2878.515625 2563.515625 2858.242188 2680.078125 C 2851.484375 2722.460938 2834.609375 2768.828125 2824.453125 2808.554688 L 2817.695312 2795.3125 C 2792.382812 2698.632812 2694.414062 2506.5625 2633.59375 2421.835938 C 2628.554688 2415.195312 2604.882812 2379.453125 2599.84375 2376.796875 C 2601.523438 2347.65625 2658.945312 2269.492188 2672.460938 2252.304688 C 2750.15625 2159.570312 2853.164062 2150.3125 2937.617188 2235.078125 C 2951.132812 2249.648438 2968.046875 2270.820312 2981.523438 2290.703125 C 2993.359375 2307.890625 3013.632812 2348.984375 3020.390625 2354.257812 C 3020.390625 2363.554688 3035.585938 2392.695312 3040.664062 2404.609375 C 3060.9375 2454.921875 3077.8125 2510.546875 3089.648438 2564.84375 C 3103.125 2632.421875 3121.71875 2743.671875 3120.039062 2813.867188 C 3121.71875 2923.789062 3116.640625 3005.898438 3103.125 3111.835938 C 3101.445312 3154.21875 3081.171875 3231.054688 3069.375 3269.453125 C 3035.585938 3384.6875 2952.8125 3584.6875 2810.9375 3583.359375 C 2628.554688 3580.703125 2544.101562 3258.867188 2522.148438 3110.546875 Z M 2522.148438 3110.546875 " transform="matrix(0.1,0,0,-0.1,0,792)"/>
<path style=" stroke:none;fill-rule:evenodd;fill:rgb(33.639526%,11.956787%,41.900635%);fill-opacity:1;" d="M 21.328125 337.773438 C 21.667969 338.039062 21.496094 337.90625 21.835938 338.171875 C 22.003906 338.4375 21.835938 338.304688 22.003906 338.703125 C 27.410156 348.898438 35.011719 351.019531 47.003906 354.328125 C 55.617188 356.582031 72.84375 358.699219 75.546875 367.707031 C 77.066406 370.089844 77.066406 376.449219 76.390625 379.628906 C 75.546875 383.070312 73.519531 386.515625 71.492188 388.5 C 69.296875 390.753906 67.4375 392.605469 63.554688 394.195312 C 60.175781 395.519531 55.953125 396.183594 51.898438 396.050781 C 43.792969 395.652344 31.800781 391.148438 27.917969 385.851562 C 25.71875 382.9375 26.394531 371.414062 26.226562 367.179688 L 20.316406 367.308594 C 20.148438 369.828125 20.484375 372.605469 20.316406 375.257812 C 20.316406 377.90625 20.148438 380.421875 19.976562 383.070312 C 19.808594 385.453125 19.640625 387.972656 19.472656 390.488281 C 18.964844 398.699219 16.601562 398.566406 23.695312 400.421875 C 30.449219 402.144531 37.035156 403.335938 44.128906 403.863281 C 61.527344 405.1875 77.742188 399.363281 86.355469 384.660156 L 87.199219 383.46875 C 87.367188 382.804688 88.214844 381.21875 88.550781 380.289062 C 91.929688 372.210938 92.265625 361.480469 88.550781 353.800781 C 83.992188 344.398438 77.742188 342.808594 66.085938 339.894531 C 57.980469 337.773438 44.300781 335.257812 38.726562 330.886719 C 35.347656 328.371094 33.488281 323.605469 33.996094 317.511719 C 34.164062 314.730469 35.011719 312.214844 36.023438 310.359375 C 36.867188 308.769531 38.894531 305.988281 40.078125 305.589844 C 40.414062 304.929688 40.078125 305.324219 40.585938 304.929688 C 44.636719 300.824219 54.265625 300.160156 60.175781 301.484375 C 65.75 302.808594 74.027344 307.710938 75.207031 312.078125 C 76.898438 313.800781 76.898438 321.882812 77.234375 324.929688 C 78.246094 325.058594 79.261719 325.058594 80.273438 325.058594 C 80.78125 325.058594 81.457031 325.058594 81.964844 325.058594 C 82.300781 325.058594 82.300781 325.058594 82.640625 324.929688 C 82.976562 324.929688 82.808594 324.929688 83.144531 324.796875 C 83.144531 324.796875 84.496094 301.21875 84.496094 298.96875 C 80.949219 297.644531 77.742188 296.1875 73.6875 294.996094 C 54.601562 289.828125 30.449219 292.214844 22.171875 312.609375 C 20.652344 316.320312 19.640625 320.558594 19.640625 325.058594 C 19.300781 333.402344 21.328125 335.65625 21.328125 337.773438 "/>
<path style="fill:none;stroke-width:0.0028;stroke-linecap:butt;stroke-linejoin:miter;stroke:rgb(33.639526%,11.956787%,41.900635%);stroke-opacity:1;stroke-miterlimit:2.61313;" d="M 213.28125 4542.265625 C 216.679688 4539.609375 214.960938 4540.9375 218.359375 4538.28125 C 220.039062 4535.625 218.359375 4536.953125 220.039062 4532.96875 C 274.101562 4431.015625 350.117188 4409.804688 470.039062 4376.71875 C 556.171875 4354.179688 728.4375 4333.007812 755.46875 4242.929688 C 770.664062 4219.101562 770.664062 4155.507812 763.90625 4123.710938 C 755.46875 4089.296875 735.195312 4054.84375 714.921875 4035 C 692.96875 4012.460938 674.375 3993.945312 635.546875 3978.046875 C 601.757812 3964.804688 559.53125 3958.164062 518.984375 3959.492188 C 437.929688 3963.476562 318.007812 4008.515625 279.179688 4061.484375 C 257.1875 4090.625 263.945312 4205.859375 262.265625 4248.203125 L 203.164062 4246.914062 C 201.484375 4221.71875 204.84375 4193.945312 203.164062 4167.421875 C 203.164062 4140.9375 201.484375 4115.78125 199.765625 4089.296875 C 198.085938 4065.46875 196.40625 4040.273438 194.726562 4015.117188 C 189.648438 3933.007812 166.015625 3934.335938 236.953125 3915.78125 C 304.492188 3898.554688 370.351562 3886.640625 441.289062 3881.367188 C 615.273438 3868.125 777.421875 3926.367188 863.554688 4073.398438 L 871.992188 4085.3125 C 873.671875 4091.953125 882.148438 4107.8125 885.507812 4117.109375 C 919.296875 4197.890625 922.65625 4305.195312 885.507812 4381.992188 C 839.921875 4476.015625 777.421875 4491.914062 660.859375 4521.054688 C 579.804688 4542.265625 443.007812 4567.421875 387.265625 4611.132812 C 353.476562 4636.289062 334.882812 4683.945312 339.960938 4744.882812 C 341.640625 4772.695312 350.117188 4797.851562 360.234375 4816.40625 C 368.671875 4832.304688 388.945312 4860.117188 400.78125 4864.101562 C 404.140625 4870.703125 400.78125 4866.757812 405.859375 4870.703125 C 446.367188 4911.757812 542.65625 4918.398438 601.757812 4905.15625 C 657.5 4891.914062 740.273438 4842.890625 752.070312 4799.21875 C 768.984375 4781.992188 768.984375 4701.171875 772.34375 4670.703125 C 782.460938 4669.414062 792.617188 4669.414062 802.734375 4669.414062 C 807.8125 4669.414062 814.570312 4669.414062 819.648438 4669.414062 C 823.007812 4669.414062 823.007812 4669.414062 826.40625 4670.703125 C 829.765625 4670.703125 828.085938 4670.703125 831.445312 4672.03125 C 831.445312 4672.03125 844.960938 4907.8125 844.960938 4930.3125 C 809.492188 4943.554688 777.421875 4958.125 736.875 4970.039062 C 546.015625 5021.71875 304.492188 4997.851562 221.71875 4793.90625 C 206.523438 4756.796875 196.40625 4714.414062 196.40625 4669.414062 C 193.007812 4585.976562 213.28125 4563.4375 213.28125 4542.265625 Z M 213.28125 4542.265625 " transform="matrix(0.1,0,0,-0.1,0,792)"/>
<path style=" stroke:none;fill-rule:evenodd;fill:rgb(33.639526%,11.956787%,41.900635%);fill-opacity:1;" d="M 259.476562 323.074219 C 262.6875 323.605469 265.21875 322.675781 267.585938 324.398438 C 269.949219 325.855469 270.285156 326.914062 270.625 330.621094 C 270.453125 331.816406 271.300781 381.613281 270.117188 392.738281 C 269.777344 395.652344 269.273438 397.640625 266.0625 397.507812 C 265.386719 398.171875 260.996094 397.90625 259.8125 397.90625 L 259.8125 401.480469 C 264.375 401.480469 268.933594 401.347656 273.496094 401.214844 C 278.222656 401.214844 282.953125 401.613281 287.34375 401.480469 L 287.175781 397.773438 C 283.628906 397.507812 278.394531 397.773438 277.378906 395.253906 C 276.703125 393.269531 276.027344 386.25 276.535156 384.128906 C 275.691406 382.804688 276.195312 361.746094 276.195312 358.304688 C 276.195312 349.960938 275.691406 340.6875 276.195312 332.34375 C 277.546875 333.667969 278.898438 335.523438 280.082031 337.113281 L 306.769531 370.089844 C 312.003906 376.316406 316.902344 382.9375 322.136719 389.03125 C 325.007812 392.210938 327.371094 395.121094 330.074219 398.171875 C 331.597656 399.890625 332.101562 400.949219 335.144531 401.746094 C 337.339844 402.144531 340.378906 402.804688 342.574219 402.9375 L 342.574219 401.480469 C 342.238281 394.195312 341.730469 387.042969 341.730469 379.761719 C 341.730469 365.457031 341.5625 349.03125 341.898438 334.859375 C 341.898438 331.816406 341.5625 326.78125 343.25 324.929688 C 345.445312 322.675781 349.160156 323.734375 352.878906 323.339844 L 352.878906 319.628906 C 348.484375 319.363281 342.910156 319.894531 338.519531 319.894531 C 335.988281 319.894531 333.621094 319.761719 331.089844 319.761719 C 330.074219 319.761719 324.839844 319.101562 324.671875 319.894531 C 324.671875 323.472656 324.332031 323.207031 325.851562 323.339844 C 327.542969 323.472656 328.894531 323.605469 330.414062 323.867188 C 334.296875 324.398438 335.816406 325.191406 335.816406 328.503906 C 336.324219 338.4375 336.324219 348.238281 336.324219 358.304688 C 336.324219 364.925781 336.664062 383.203125 336.324219 388.367188 C 332.609375 384.925781 328.894531 379.890625 325.347656 375.917969 C 324.164062 374.460938 323.152344 373.003906 321.800781 371.546875 C 319.4375 368.765625 317.070312 365.722656 314.707031 362.9375 L 283.460938 323.867188 C 278.394531 317.511719 282.445312 320.027344 269.777344 319.894531 C 266.90625 319.894531 262.179688 319.363281 259.644531 319.628906 L 259.476562 323.074219 "/>
<path style="fill:none;stroke-width:0.0028;stroke-linecap:butt;stroke-linejoin:miter;stroke:rgb(33.639526%,11.956787%,41.900635%);stroke-opacity:1;stroke-miterlimit:2.61313;" d="M 2594.765625 4689.257812 C 2626.875 4683.945312 2652.1875 4693.242188 2675.859375 4676.015625 C 2699.492188 4661.445312 2702.851562 4650.859375 2706.25 4613.789062 C 2704.53125 4601.835938 2713.007812 4103.867188 2701.171875 3992.617188 C 2697.773438 3963.476562 2692.734375 3943.59375 2660.625 3944.921875 C 2653.867188 3938.28125 2609.960938 3940.9375 2598.125 3940.9375 L 2598.125 3905.195312 C 2643.75 3905.195312 2689.335938 3906.523438 2734.960938 3907.851562 C 2782.226562 3907.851562 2829.53125 3903.867188 2873.4375 3905.195312 L 2871.757812 3942.265625 C 2836.289062 3944.921875 2783.945312 3942.265625 2773.789062 3967.460938 C 2767.03125 3987.304688 2760.273438 4057.5 2765.351562 4078.710938 C 2756.914062 4091.953125 2761.953125 4302.539062 2761.953125 4336.953125 C 2761.953125 4420.390625 2756.914062 4513.125 2761.953125 4596.5625 C 2775.46875 4583.320312 2788.984375 4564.765625 2800.820312 4548.867188 L 3067.695312 4219.101562 C 3120.039062 4156.835938 3169.023438 4090.625 3221.367188 4029.6875 C 3250.078125 3997.890625 3273.710938 3968.789062 3300.742188 3938.28125 C 3315.976562 3921.09375 3321.015625 3910.507812 3351.445312 3902.539062 C 3373.398438 3898.554688 3403.789062 3891.953125 3425.742188 3890.625 L 3425.742188 3905.195312 C 3422.382812 3978.046875 3417.304688 4049.570312 3417.304688 4122.382812 C 3417.304688 4265.429688 3415.625 4429.6875 3418.984375 4571.40625 C 3418.984375 4601.835938 3415.625 4652.1875 3432.5 4670.703125 C 3454.453125 4693.242188 3491.601562 4682.65625 3528.789062 4686.601562 L 3528.789062 4723.710938 C 3484.84375 4726.367188 3429.101562 4721.054688 3385.195312 4721.054688 C 3359.882812 4721.054688 3336.210938 4722.382812 3310.898438 4722.382812 C 3300.742188 4722.382812 3248.398438 4728.984375 3246.71875 4721.054688 C 3246.71875 4685.273438 3243.320312 4687.929688 3258.515625 4686.601562 C 3275.429688 4685.273438 3288.945312 4683.945312 3304.140625 4681.328125 C 3342.96875 4676.015625 3358.164062 4668.085938 3358.164062 4634.960938 C 3363.242188 4535.625 3363.242188 4437.617188 3363.242188 4336.953125 C 3363.242188 4270.742188 3366.640625 4087.96875 3363.242188 4036.328125 C 3326.09375 4070.742188 3288.945312 4121.09375 3253.476562 4160.820312 C 3241.640625 4175.390625 3231.523438 4189.960938 3218.007812 4204.53125 C 3194.375 4232.34375 3170.703125 4262.773438 3147.070312 4290.625 L 2834.609375 4681.328125 C 2783.945312 4744.882812 2824.453125 4719.726562 2697.773438 4721.054688 C 2669.0625 4721.054688 2621.796875 4726.367188 2596.445312 4723.710938 Z M 2594.765625 4689.257812 " transform="matrix(0.1,0,0,-0.1,0,792)"/>
<path style=" stroke:none;fill-rule:evenodd;fill:rgb(33.639526%,11.956787%,41.900635%);fill-opacity:1;" d="M 346.964844 552.730469 L 346.796875 553.792969 L 354.566406 553.792969 L 354.398438 552.730469 C 354.058594 552.730469 353.554688 552.863281 353.046875 552.730469 C 352.03125 552.46875 352.539062 552.601562 352.371094 552.070312 C 351.695312 551.671875 351.863281 544.519531 352.203125 543.59375 C 352.878906 543.992188 354.058594 545.316406 354.734375 545.976562 L 361.828125 553.792969 L 365.714844 553.792969 L 365.714844 553.128906 L 365.039062 552.863281 C 364.53125 552.601562 364.363281 552.203125 364.023438 551.9375 L 355.410156 542.535156 L 354.734375 542.269531 C 355.242188 540.8125 359.800781 536.707031 361.660156 534.851562 C 362.671875 533.660156 363.011719 533.527344 365.039062 533.394531 L 364.867188 532.335938 C 363.519531 532.734375 362.164062 532.601562 360.644531 532.46875 L 360.476562 532.734375 C 360.476562 532.867188 360.476562 532.867188 360.308594 532.996094 C 360.308594 533.128906 360.308594 533.128906 360.308594 533.261719 C 359.800781 534.71875 353.046875 541.871094 352.03125 542.402344 C 352.03125 540.28125 351.863281 536.042969 352.203125 533.925781 C 352.707031 533.660156 352.878906 533.660156 353.382812 533.527344 C 354.902344 533.261719 354.230469 533.925781 354.566406 532.867188 C 354.230469 532.335938 354.566406 532.601562 353.722656 532.46875 L 348.65625 532.46875 C 346.796875 532.335938 347.136719 532.601562 346.796875 532.867188 C 347.304688 534.058594 346.628906 533.128906 348.992188 533.660156 C 349.667969 535.25 349.5 546.773438 349.5 549.949219 C 349.328125 552.46875 349.667969 552.863281 346.964844 552.730469 "/>
<path style="fill:none;stroke-width:0.0028;stroke-linecap:butt;stroke-linejoin:miter;stroke:rgb(33.639526%,11.956787%,41.900635%);stroke-opacity:1;stroke-miterlimit:2.61313;" d="M 3469.648438 2392.695312 L 3467.96875 2382.070312 L 3545.664062 2382.070312 L 3543.984375 2392.695312 C 3540.585938 2392.695312 3535.546875 2391.367188 3530.46875 2392.695312 C 3520.3125 2395.3125 3525.390625 2393.984375 3523.710938 2399.296875 C 3516.953125 2403.28125 3518.632812 2474.804688 3522.03125 2484.0625 C 3528.789062 2480.078125 3540.585938 2466.835938 3547.34375 2460.234375 L 3618.28125 2382.070312 L 3657.148438 2382.070312 L 3657.148438 2388.710938 L 3650.390625 2391.367188 C 3645.3125 2393.984375 3643.632812 2397.96875 3640.234375 2400.625 L 3554.101562 2494.648438 L 3547.34375 2497.304688 C 3552.421875 2511.875 3598.007812 2552.929688 3616.601562 2571.484375 C 3626.71875 2583.398438 3630.117188 2584.726562 3650.390625 2586.054688 L 3648.671875 2596.640625 C 3635.195312 2592.65625 3621.640625 2593.984375 3606.445312 2595.3125 L 3604.765625 2592.65625 C 3604.765625 2591.328125 3604.765625 2591.328125 3603.085938 2590.039062 C 3603.085938 2588.710938 3603.085938 2588.710938 3603.085938 2587.382812 C 3598.007812 2572.8125 3530.46875 2501.289062 3520.3125 2495.976562 C 3520.3125 2517.1875 3518.632812 2559.570312 3522.03125 2580.742188 C 3527.070312 2583.398438 3528.789062 2583.398438 3533.828125 2584.726562 C 3549.023438 2587.382812 3542.304688 2580.742188 3545.664062 2591.328125 C 3542.304688 2596.640625 3545.664062 2593.984375 3537.226562 2595.3125 L 3486.5625 2595.3125 C 3467.96875 2596.640625 3471.367188 2593.984375 3467.96875 2591.328125 C 3473.046875 2579.414062 3466.289062 2588.710938 3489.921875 2583.398438 C 3496.679688 2567.5 3495 2452.265625 3495 2420.507812 C 3493.28125 2395.3125 3496.679688 2391.367188 3469.648438 2392.695312 Z M 3469.648438 2392.695312 " transform="matrix(0.1,0,0,-0.1,0,792)"/>
<path style=" stroke:none;fill-rule:evenodd;fill:rgb(33.639526%,11.956787%,41.900635%);fill-opacity:1;" d="M 124.695312 552.730469 L 124.527344 553.792969 L 132.632812 553.792969 L 132.464844 552.601562 C 131.28125 552.730469 131.113281 552.730469 130.269531 552.601562 C 129.59375 549.289062 129.761719 547.035156 129.929688 543.726562 C 131.789062 543.59375 133.984375 543.460938 135.503906 543.992188 C 135.675781 544.785156 135.503906 546.507812 136.179688 546.773438 C 137.195312 546.375 136.855469 540.015625 136.519531 539.621094 C 133.984375 540.015625 138.882812 543.0625 129.929688 542.269531 L 129.929688 535.117188 L 130.101562 534.058594 C 132.296875 533.792969 134.996094 533.660156 136.855469 534.453125 L 137.023438 537.105469 L 138.039062 537.105469 L 138.375 532.46875 C 136.011719 532.335938 133.648438 532.46875 131.28125 532.46875 C 130.101562 532.46875 128.917969 532.601562 127.734375 532.601562 C 124.863281 532.46875 124.527344 532.070312 124.527344 532.867188 C 124.527344 534.320312 126.046875 532.996094 126.890625 533.925781 C 127.566406 534.851562 127.230469 547.300781 127.230469 549.15625 C 127.230469 551.9375 127.734375 552.863281 124.695312 552.730469 "/>
<path style="fill:none;stroke-width:0.0028;stroke-linecap:butt;stroke-linejoin:miter;stroke:rgb(33.639526%,11.956787%,41.900635%);stroke-opacity:1;stroke-miterlimit:2.61313;" d="M 1246.953125 2392.695312 L 1245.273438 2382.070312 L 1326.328125 2382.070312 L 1324.648438 2393.984375 C 1312.8125 2392.695312 1311.132812 2392.695312 1302.695312 2393.984375 C 1295.9375 2427.109375 1297.617188 2449.648438 1299.296875 2482.734375 C 1317.890625 2484.0625 1339.84375 2485.390625 1355.039062 2480.078125 C 1356.757812 2472.148438 1355.039062 2454.921875 1361.796875 2452.265625 C 1371.953125 2456.25 1368.554688 2519.84375 1365.195312 2523.789062 C 1339.84375 2519.84375 1388.828125 2489.375 1299.296875 2497.304688 L 1299.296875 2568.828125 L 1301.015625 2579.414062 C 1322.96875 2582.070312 1349.960938 2583.398438 1368.554688 2575.46875 L 1370.234375 2548.945312 L 1380.390625 2548.945312 L 1383.75 2595.3125 C 1360.117188 2596.640625 1336.484375 2595.3125 1312.8125 2595.3125 C 1301.015625 2595.3125 1289.179688 2593.984375 1277.34375 2593.984375 C 1248.632812 2595.3125 1245.273438 2599.296875 1245.273438 2591.328125 C 1245.273438 2576.796875 1260.46875 2590.039062 1268.90625 2580.742188 C 1275.664062 2571.484375 1272.304688 2446.992188 1272.304688 2428.4375 C 1272.304688 2400.625 1277.34375 2391.367188 1246.953125 2392.695312 Z M 1246.953125 2392.695312 " transform="matrix(0.1,0,0,-0.1,0,792)"/>
<path style=" stroke:none;fill-rule:evenodd;fill:rgb(33.639526%,11.956787%,41.900635%);fill-opacity:1;" d="M 416.214844 551.539062 C 415.707031 551.011719 415.875 549.023438 415.875 548.230469 C 415.875 545.976562 415.707031 539.488281 416.214844 538.164062 C 420.773438 536.707031 423.984375 539.222656 424.488281 543.195312 C 424.488281 547.964844 423.644531 552.070312 417.902344 551.9375 C 417.734375 551.9375 417.058594 551.804688 416.890625 551.804688 C 416.722656 551.804688 416.550781 551.671875 416.214844 551.539062 Z M 412.835938 552.601562 L 413.003906 552.996094 C 419.59375 553.261719 423.308594 553.527344 425.839844 548.230469 C 427.023438 546.375 427.023438 543.59375 426.347656 541.472656 C 425.164062 537.367188 421.957031 536.707031 418.242188 536.839844 C 416.722656 536.839844 412.667969 536.574219 411.992188 537.105469 C 411.992188 538.164062 413.511719 537.632812 413.511719 538.03125 C 414.019531 540.546875 413.851562 546.640625 413.851562 549.6875 C 413.851562 552.46875 413.511719 551.539062 412.835938 552.601562 "/>
<path style="fill:none;stroke-width:0.0028;stroke-linecap:butt;stroke-linejoin:miter;stroke:rgb(33.639526%,11.956787%,41.900635%);stroke-opacity:1;stroke-miterlimit:2.61313;" d="M 4162.148438 2404.609375 C 4157.070312 2409.882812 4158.75 2429.765625 4158.75 2437.695312 C 4158.75 2460.234375 4157.070312 2525.117188 4162.148438 2538.359375 C 4207.734375 2552.929688 4239.84375 2527.773438 4244.882812 2488.046875 C 4244.882812 2440.351562 4236.445312 2399.296875 4179.023438 2400.625 C 4177.34375 2400.625 4170.585938 2401.953125 4168.90625 2401.953125 C 4167.226562 2401.953125 4165.507812 2403.28125 4162.148438 2404.609375 Z M 4128.359375 2393.984375 L 4130.039062 2390.039062 C 4195.9375 2387.382812 4233.085938 2384.726562 4258.398438 2437.695312 C 4270.234375 2456.25 4270.234375 2484.0625 4263.476562 2505.273438 C 4251.640625 2546.328125 4219.570312 2552.929688 4182.421875 2551.601562 C 4167.226562 2551.601562 4126.679688 2554.257812 4119.921875 2548.945312 C 4119.921875 2538.359375 4135.117188 2543.671875 4135.117188 2539.6875 C 4140.195312 2514.53125 4138.515625 2453.59375 4138.515625 2423.125 C 4138.515625 2395.3125 4135.117188 2404.609375 4128.359375 2393.984375 Z M 4128.359375 2393.984375 " transform="matrix(0.1,0,0,-0.1,0,792)"/>
<path style=" stroke:none;fill-rule:evenodd;fill:rgb(33.639526%,11.956787%,41.900635%);fill-opacity:1;" d="M 208.46875 538.957031 L 208.636719 538.164062 C 210.664062 537.765625 213.367188 537.367188 213.703125 540.28125 C 214.042969 542.535156 212.859375 544.785156 209.3125 544.253906 C 209.480469 545.449219 211.339844 547.699219 212.015625 548.890625 C 213.027344 550.347656 213.875 551.671875 214.886719 553.128906 L 217.589844 553.128906 C 217.421875 551.804688 217.757812 552.863281 216.914062 552.070312 C 216.238281 551.539062 212.355469 545.976562 212.183594 544.917969 C 214.042969 544.253906 214.886719 543.992188 215.5625 542.402344 C 216.238281 540.8125 216.070312 538.957031 214.886719 537.898438 C 213.875 536.839844 211.847656 536.839844 209.988281 536.972656 C 208.46875 536.972656 205.765625 536.574219 204.585938 537.105469 C 204.921875 538.296875 204.414062 537.367188 205.429688 537.765625 C 205.9375 538.03125 206.441406 537.367188 206.441406 540.28125 L 206.441406 550.214844 C 206.441406 553.792969 205.089844 551.40625 204.585938 552.996094 C 204.753906 553.128906 204.753906 553.128906 205.089844 553.128906 C 205.597656 553.261719 209.988281 553.261719 210.496094 552.996094 C 210.15625 551.9375 210.328125 552.601562 208.808594 552.203125 C 208.132812 550.347656 208.46875 541.34375 208.46875 538.957031 "/>
<path style="fill:none;stroke-width:0.0028;stroke-linecap:butt;stroke-linejoin:miter;stroke:rgb(33.639526%,11.956787%,41.900635%);stroke-opacity:1;stroke-miterlimit:2.61313;" d="M 2084.6875 2530.429688 L 2086.367188 2538.359375 C 2106.640625 2542.34375 2133.671875 2546.328125 2137.03125 2517.1875 C 2140.429688 2494.648438 2128.59375 2472.148438 2093.125 2477.460938 C 2094.804688 2465.507812 2113.398438 2443.007812 2120.15625 2431.09375 C 2130.273438 2416.523438 2138.75 2403.28125 2148.867188 2388.710938 L 2175.898438 2388.710938 C 2174.21875 2401.953125 2177.578125 2391.367188 2169.140625 2399.296875 C 2162.382812 2404.609375 2123.554688 2460.234375 2121.835938 2470.820312 C 2140.429688 2477.460938 2148.867188 2480.078125 2155.625 2495.976562 C 2162.382812 2511.875 2160.703125 2530.429688 2148.867188 2541.015625 C 2138.75 2551.601562 2118.476562 2551.601562 2099.882812 2550.273438 C 2084.6875 2550.273438 2057.65625 2554.257812 2045.859375 2548.945312 C 2049.21875 2537.03125 2044.140625 2546.328125 2054.296875 2542.34375 C 2059.375 2539.6875 2064.414062 2546.328125 2064.414062 2517.1875 L 2064.414062 2417.851562 C 2064.414062 2382.070312 2050.898438 2405.9375 2045.859375 2390.039062 C 2047.539062 2388.710938 2047.539062 2388.710938 2050.898438 2388.710938 C 2055.976562 2387.382812 2099.882812 2387.382812 2104.960938 2390.039062 C 2101.5625 2400.625 2103.28125 2393.984375 2088.085938 2397.96875 C 2081.328125 2416.523438 2084.6875 2506.5625 2084.6875 2530.429688 Z M 2084.6875 2530.429688 " transform="matrix(0.1,0,0,-0.1,0,792)"/>
<path style=" stroke:none;fill-rule:evenodd;fill:rgb(33.639526%,11.956787%,41.900635%);fill-opacity:1;" d="M 166.242188 542.535156 C 166.75 537.5 171.3125 536.707031 174.015625 538.164062 C 180.261719 541.472656 176.886719 555.777344 169.453125 551.40625 C 167.089844 549.949219 165.738281 546.375 166.242188 542.535156 Z M 164.046875 543.59375 C 163.878906 555.246094 173.84375 554.851562 177.5625 549.816406 C 179.417969 547.035156 179.925781 544.386719 178.910156 541.210938 C 178.234375 539.089844 176.546875 537.367188 174.351562 536.707031 C 168.777344 535.117188 164.554688 538.691406 164.046875 543.59375 "/>
<path style="fill:none;stroke-width:0.0028;stroke-linecap:butt;stroke-linejoin:miter;stroke:rgb(33.639526%,11.956787%,41.900635%);stroke-opacity:1;stroke-miterlimit:2.61313;" d="M 1662.421875 2494.648438 C 1667.5 2545 1713.125 2552.929688 1740.15625 2538.359375 C 1802.617188 2505.273438 1768.867188 2362.226562 1694.53125 2405.9375 C 1670.898438 2420.507812 1657.382812 2456.25 1662.421875 2494.648438 Z M 1640.46875 2484.0625 C 1638.789062 2367.539062 1738.4375 2371.484375 1775.625 2421.835938 C 1794.179688 2449.648438 1799.257812 2476.132812 1789.101562 2507.890625 C 1782.34375 2529.101562 1765.46875 2546.328125 1743.515625 2552.929688 C 1687.773438 2568.828125 1645.546875 2533.085938 1640.46875 2484.0625 Z M 1640.46875 2484.0625 " transform="matrix(0.1,0,0,-0.1,0,792)"/>
<path style=" stroke:none;fill-rule:evenodd;fill:rgb(33.639526%,11.956787%,41.900635%);fill-opacity:1;" d="M 447.460938 540.8125 C 447.460938 548.230469 453.203125 544.386719 455.398438 546.90625 C 457.089844 549.15625 455.230469 552.601562 451.34375 552.203125 C 448.8125 551.9375 448.472656 551.273438 448.472656 548.890625 L 447.796875 549.023438 L 447.628906 552.46875 C 453.203125 554.320312 458.269531 552.863281 457.59375 546.375 C 456.074219 542.269531 451.007812 545.183594 449.65625 542.402344 C 447.96875 538.824219 452.359375 536.441406 455.566406 538.824219 C 455.734375 539.886719 455.566406 540.546875 456.242188 540.945312 C 456.917969 540.546875 456.75 539.355469 456.917969 537.632812 C 452.695312 535.777344 448.304688 536.574219 447.460938 540.8125 "/>
<path style="fill:none;stroke-width:0.0028;stroke-linecap:butt;stroke-linejoin:miter;stroke:rgb(33.639526%,11.956787%,41.900635%);stroke-opacity:1;stroke-miterlimit:2.61313;" d="M 4474.609375 2511.875 C 4474.609375 2437.695312 4532.03125 2476.132812 4553.984375 2450.9375 C 4570.898438 2428.4375 4552.304688 2393.984375 4513.4375 2397.96875 C 4488.125 2400.625 4484.726562 2407.265625 4484.726562 2431.09375 L 4477.96875 2429.765625 L 4476.289062 2395.3125 C 4532.03125 2376.796875 4582.695312 2391.367188 4575.9375 2456.25 C 4560.742188 2497.304688 4510.078125 2468.164062 4496.5625 2495.976562 C 4479.6875 2531.757812 4523.59375 2555.585938 4555.664062 2531.757812 C 4557.34375 2521.132812 4555.664062 2514.53125 4562.421875 2510.546875 C 4569.179688 2514.53125 4567.5 2526.445312 4569.179688 2543.671875 C 4526.953125 2562.226562 4483.046875 2554.257812 4474.609375 2511.875 Z M 4474.609375 2511.875 " transform="matrix(0.1,0,0,-0.1,0,792)"/>
<path style=" stroke:none;fill-rule:evenodd;fill:rgb(33.639526%,11.956787%,41.900635%);fill-opacity:1;" d="M 385.644531 536.574219 C 384.628906 536.574219 385.136719 536.441406 384.460938 536.972656 C 385.476562 537.898438 385.644531 536.972656 386.148438 537.765625 C 386.65625 538.429688 386.488281 548.359375 386.320312 549.6875 C 386.320312 553.660156 385.136719 550.878906 384.460938 552.46875 C 385.136719 552.996094 385.980469 552.730469 387.503906 552.730469 C 388.347656 552.730469 389.695312 552.996094 390.371094 552.46875 C 390.035156 551.539062 390.710938 552.335938 389.527344 551.9375 C 389.019531 551.804688 389.191406 552.203125 388.683594 551.539062 C 388.347656 551.011719 388.515625 545.578125 388.515625 544.785156 C 388.515625 543.0625 388.515625 541.472656 388.515625 539.753906 C 388.515625 539.222656 388.347656 538.03125 388.683594 537.632812 C 389.527344 536.839844 389.867188 538.03125 390.371094 536.972656 C 389.695312 536.308594 388.515625 536.707031 387.332031 536.574219 C 386.824219 536.574219 385.980469 536.574219 385.644531 536.574219 "/>
<path style="fill:none;stroke-width:0.0028;stroke-linecap:butt;stroke-linejoin:miter;stroke:rgb(33.639526%,11.956787%,41.900635%);stroke-opacity:1;stroke-miterlimit:2.61313;" d="M 3856.445312 2554.257812 C 3846.289062 2554.257812 3851.367188 2555.585938 3844.609375 2550.273438 C 3854.765625 2541.015625 3856.445312 2550.273438 3861.484375 2542.34375 C 3866.5625 2535.703125 3864.882812 2436.40625 3863.203125 2423.125 C 3863.203125 2383.398438 3851.367188 2411.210938 3844.609375 2395.3125 C 3851.367188 2390.039062 3859.804688 2392.695312 3875.039062 2392.695312 C 3883.476562 2392.695312 3896.953125 2390.039062 3903.710938 2395.3125 C 3900.351562 2404.609375 3907.109375 2396.640625 3895.273438 2400.625 C 3890.195312 2401.953125 3891.914062 2397.96875 3886.835938 2404.609375 C 3883.476562 2409.882812 3885.15625 2464.21875 3885.15625 2472.148438 C 3885.15625 2489.375 3885.15625 2505.273438 3885.15625 2522.460938 C 3885.15625 2527.773438 3883.476562 2539.6875 3886.835938 2543.671875 C 3895.273438 2551.601562 3898.671875 2539.6875 3903.710938 2550.273438 C 3896.953125 2556.914062 3885.15625 2552.929688 3873.320312 2554.257812 C 3868.242188 2554.257812 3859.804688 2554.257812 3856.445312 2554.257812 Z M 3856.445312 2554.257812 " transform="matrix(0.1,0,0,-0.1,0,792)"/>
<path style=" stroke:none;fill-rule:evenodd;fill:rgb(78.361511%,57.597351%,81.378174%);fill-opacity:1;" d="M 161.175781 319.628906 C 162.023438 321.882812 161.007812 395.519531 161.007812 401.746094 C 161.007812 406.644531 161.007812 427.96875 161.683594 432.871094 C 162.023438 435.121094 162.191406 437.503906 162.359375 439.890625 C 163.035156 446.246094 164.554688 454.324219 166.242188 460.019531 C 166.921875 462.140625 167.597656 463.597656 168.269531 465.847656 C 168.777344 467.171875 172.664062 474.457031 173.84375 476.179688 C 184.316406 491.277344 197.828125 499.488281 216.070312 505.449219 C 220.460938 506.90625 237.855469 512.070312 241.402344 511.675781 C 243.09375 511.675781 244.613281 512.070312 246.300781 512.203125 C 246.976562 512.335938 247.820312 512.46875 248.496094 512.46875 C 249.679688 512.601562 250.1875 512.601562 250.863281 513.265625 C 250.1875 508.628906 250.523438 501.609375 250.691406 496.839844 C 250.863281 491.277344 251.707031 486.246094 252.214844 480.945312 C 249.003906 480.816406 240.054688 477.503906 237.351562 476.3125 C 225.191406 470.75 212.355469 461.214844 208.132812 447.175781 C 205.089844 437.242188 204.246094 423.597656 203.738281 412.605469 C 203.738281 410.753906 203.0625 375.519531 203.570312 374.460938 C 203.910156 371.28125 197.320312 364.792969 192.59375 373.667969 C 190.566406 377.90625 188.199219 383.867188 186.511719 388.5 C 185.667969 390.355469 183.640625 394.992188 185.667969 396.316406 C 187.355469 397.507812 192.425781 397.242188 194.617188 397.90625 L 194.617188 401.480469 C 192.761719 401.613281 190.058594 401.214844 188.199219 401.214844 C 181.277344 401.082031 173.167969 401.613281 167.597656 401.480469 L 167.597656 397.90625 C 175.703125 397.242188 174.6875 398.964844 180.601562 385.984375 L 199.6875 343.203125 C 200.699219 340.554688 202.726562 336.847656 203.402344 334.199219 C 203.0625 333.535156 203.402344 304.929688 203.402344 301.351562 C 203.402344 290.625 203.738281 279.765625 204.078125 269.035156 C 204.246094 264.136719 204.585938 258.308594 205.429688 253.671875 C 206.441406 247.578125 206.949219 245.859375 212.183594 244.003906 C 219.109375 241.488281 231.269531 242.019531 239.378906 242.019531 C 244.78125 242.019531 243.601562 243.476562 243.601562 233.277344 C 243.601562 230.363281 243.769531 227.183594 243.601562 224.402344 C 223.671875 224.800781 203.738281 225.726562 183.640625 225.726562 C 168.777344 225.726562 153.40625 225.328125 138.546875 224.800781 C 136.011719 224.800781 125.539062 224.136719 123.683594 224.535156 C 123.34375 226.652344 123.34375 240.5625 123.851562 241.753906 C 124.527344 242.679688 143.441406 241.222656 151.382812 243.210938 C 155.265625 244.136719 158.304688 245.859375 159.152344 249.566406 C 160.671875 257.777344 161.175781 282.28125 161.347656 290.757812 C 161.347656 294.730469 161.851562 318.039062 161.175781 319.628906 "/>
<path style="fill:none;stroke-width:0.0028;stroke-linecap:butt;stroke-linejoin:miter;stroke:rgb(78.361511%,57.597351%,81.378174%);stroke-opacity:1;stroke-miterlimit:2.61313;" d="M 1611.757812 4723.710938 C 1620.234375 4701.171875 1610.078125 3964.804688 1610.078125 3902.539062 C 1610.078125 3853.554688 1610.078125 3640.3125 1616.835938 3591.289062 C 1620.234375 3568.789062 1621.914062 3544.960938 1623.59375 3521.09375 C 1630.351562 3457.539062 1645.546875 3376.757812 1662.421875 3319.804688 C 1669.21875 3298.59375 1675.976562 3284.023438 1682.695312 3261.523438 C 1687.773438 3248.28125 1726.640625 3175.429688 1738.4375 3158.203125 C 1843.164062 3007.226562 1978.28125 2925.117188 2160.703125 2865.507812 C 2204.609375 2850.9375 2378.554688 2799.296875 2414.023438 2803.242188 C 2430.9375 2803.242188 2446.132812 2799.296875 2463.007812 2797.96875 C 2469.765625 2796.640625 2478.203125 2795.3125 2484.960938 2795.3125 C 2496.796875 2793.984375 2501.875 2793.984375 2508.632812 2787.34375 C 2501.875 2833.710938 2505.234375 2903.90625 2506.914062 2951.601562 C 2508.632812 3007.226562 2517.070312 3057.539062 2522.148438 3110.546875 C 2490.039062 3111.835938 2400.546875 3144.960938 2373.515625 3156.875 C 2251.914062 3212.5 2123.554688 3307.851562 2081.328125 3448.242188 C 2050.898438 3547.578125 2042.460938 3684.023438 2037.382812 3793.945312 C 2037.382812 3812.460938 2030.625 4164.804688 2035.703125 4175.390625 C 2039.101562 4207.1875 1973.203125 4272.070312 1925.9375 4183.320312 C 1905.664062 4140.9375 1881.992188 4081.328125 1865.117188 4035 C 1856.679688 4016.445312 1836.40625 3970.078125 1856.679688 3956.835938 C 1873.554688 3944.921875 1924.257812 3947.578125 1946.171875 3940.9375 L 1946.171875 3905.195312 C 1927.617188 3903.867188 1900.585938 3907.851562 1881.992188 3907.851562 C 1812.773438 3909.179688 1731.679688 3903.867188 1675.976562 3905.195312 L 1675.976562 3940.9375 C 1757.03125 3947.578125 1746.875 3930.351562 1806.015625 4060.15625 L 1996.875 4487.96875 C 2006.992188 4514.453125 2027.265625 4551.523438 2034.023438 4578.007812 C 2030.625 4584.648438 2034.023438 4870.703125 2034.023438 4906.484375 C 2034.023438 5013.75 2037.382812 5122.34375 2040.78125 5229.648438 C 2042.460938 5278.632812 2045.859375 5336.914062 2054.296875 5383.28125 C 2064.414062 5444.21875 2069.492188 5461.40625 2121.835938 5479.960938 C 2191.09375 5505.117188 2312.695312 5499.804688 2393.789062 5499.804688 C 2447.8125 5499.804688 2436.015625 5485.234375 2436.015625 5587.226562 C 2436.015625 5616.367188 2437.695312 5648.164062 2436.015625 5675.976562 C 2236.71875 5671.992188 2037.382812 5662.734375 1836.40625 5662.734375 C 1687.773438 5662.734375 1534.0625 5666.71875 1385.46875 5671.992188 C 1360.117188 5671.992188 1255.390625 5678.632812 1236.835938 5674.648438 C 1233.4375 5653.476562 1233.4375 5514.375 1238.515625 5502.460938 C 1245.273438 5493.203125 1434.414062 5507.773438 1513.828125 5487.890625 C 1552.65625 5478.632812 1583.046875 5461.40625 1591.523438 5424.335938 C 1606.71875 5342.226562 1611.757812 5097.1875 1613.476562 5012.421875 C 1613.476562 4972.695312 1618.515625 4739.609375 1611.757812 4723.710938 Z M 1611.757812 4723.710938 " transform="matrix(0.1,0,0,-0.1,0,792)"/>
<path style=" stroke:none;fill-rule:evenodd;fill:rgb(78.361511%,57.597351%,81.378174%);fill-opacity:1;" d="M 506.742188 399.097656 C 506.574219 400.554688 507.421875 403.203125 507.757812 404.394531 C 509.445312 408.898438 508.09375 410.488281 510.796875 411.015625 L 518.90625 412.472656 C 534.949219 414.59375 548.125 413.402344 562.816406 407.042969 C 579.878906 399.757812 593.726562 386.777344 600.480469 368.238281 C 605.378906 354.726562 605.042969 338.570312 598.117188 326.253906 C 583.59375 300.292969 547.953125 300.558594 521.605469 301.351562 C 504.886719 301.882812 488.335938 302.410156 471.613281 302.410156 C 459.960938 302.410156 445.433594 302.28125 433.78125 301.75 C 430.910156 301.617188 431.246094 301.21875 431.246094 305.722656 C 431.246094 307.3125 430.910156 310.226562 431.414062 311.550781 C 434.117188 312.476562 445.941406 310.757812 453.203125 313.40625 C 457.933594 315.128906 458.777344 318.039062 459.789062 322.542969 C 460.128906 324.664062 460.464844 327.3125 460.632812 329.5625 C 460.972656 334.597656 460.972656 339.363281 461.140625 344.660156 C 461.140625 354.859375 461.480469 365.191406 461.480469 375.519531 L 461.480469 438.300781 C 461.480469 448.632812 461.140625 458.695312 460.804688 469.027344 C 460.632812 476.046875 460.632812 492.601562 458.269531 497.636719 C 455.0625 504.65625 441.210938 501.609375 431.585938 502.402344 C 431.078125 503.726562 431.078125 510.746094 431.585938 511.808594 C 431.921875 512.203125 433.78125 512.070312 434.285156 512.070312 L 453.539062 511.542969 C 468.402344 511.011719 483.097656 511.277344 497.960938 511.542969 C 500.664062 511.542969 518.90625 512.46875 519.410156 511.9375 C 519.917969 511.011719 519.917969 503.726562 519.578125 502.402344 C 511.472656 501.609375 502.183594 503.59375 495.089844 499.886719 C 491.710938 498.164062 491.375 495.25 490.867188 490.617188 C 489.011719 471.542969 489.515625 444.65625 489.515625 425.054688 C 489.515625 407.175781 489.515625 389.164062 489.515625 371.28125 C 489.515625 362.675781 489.179688 353.007812 489.683594 344.53125 C 490.191406 336.054688 489.855469 327.3125 490.53125 318.835938 C 492.050781 317.777344 500.15625 316.1875 502.519531 315.523438 C 505.898438 314.597656 512.316406 313.671875 515.863281 313.40625 C 523.972656 313.140625 529.546875 313.273438 537.3125 314.597656 L 546.433594 317.113281 C 549.644531 318.171875 550.996094 318.703125 554.203125 320.820312 C 564.339844 327.445312 570.082031 335.921875 571.769531 349.03125 C 574.640625 369.429688 567.210938 385.453125 556.230469 393.929688 C 546.097656 401.613281 532.753906 403.601562 519.410156 401.613281 C 514.511719 400.949219 509.785156 399.625 506.742188 399.097656 "/>
<path style="fill:none;stroke-width:0.0028;stroke-linecap:butt;stroke-linejoin:miter;stroke:rgb(78.361511%,57.597351%,81.378174%);stroke-opacity:1;stroke-miterlimit:2.61313;" d="M 5067.421875 3929.023438 C 5065.742188 3914.453125 5074.21875 3887.96875 5077.578125 3876.054688 C 5094.453125 3831.015625 5080.9375 3815.117188 5107.96875 3809.84375 L 5189.0625 3795.273438 C 5349.492188 3774.0625 5481.25 3785.976562 5628.164062 3849.570312 C 5798.789062 3922.421875 5937.265625 4052.226562 6004.804688 4237.617188 C 6053.789062 4372.734375 6050.429688 4534.296875 5981.171875 4657.460938 C 5835.9375 4917.070312 5479.53125 4914.414062 5216.054688 4906.484375 C 5048.867188 4901.171875 4883.359375 4895.898438 4716.132812 4895.898438 C 4599.609375 4895.898438 4454.335938 4897.1875 4337.8125 4902.5 C 4309.101562 4903.828125 4312.460938 4907.8125 4312.460938 4862.773438 C 4312.460938 4846.875 4309.101562 4817.734375 4314.140625 4804.492188 C 4341.171875 4795.234375 4459.414062 4812.421875 4532.03125 4785.9375 C 4579.335938 4768.710938 4587.773438 4739.609375 4597.890625 4694.570312 C 4601.289062 4673.359375 4604.648438 4646.875 4606.328125 4624.375 C 4609.726562 4574.023438 4609.726562 4526.367188 4611.40625 4473.398438 C 4611.40625 4371.40625 4614.804688 4268.085938 4614.804688 4164.804688 L 4614.804688 3536.992188 C 4614.804688 3433.671875 4611.40625 3333.046875 4608.046875 3229.726562 C 4606.328125 3159.53125 4606.328125 2993.984375 4582.695312 2943.632812 C 4550.625 2873.4375 4412.109375 2903.90625 4315.859375 2895.976562 C 4310.78125 2882.734375 4310.78125 2812.539062 4315.859375 2801.914062 C 4319.21875 2797.96875 4337.8125 2799.296875 4342.851562 2799.296875 L 4535.390625 2804.570312 C 4684.023438 2809.882812 4830.976562 2807.226562 4979.609375 2804.570312 C 5006.640625 2804.570312 5189.0625 2795.3125 5194.101562 2800.625 C 5199.179688 2809.882812 5199.179688 2882.734375 5195.78125 2895.976562 C 5114.726562 2903.90625 5021.835938 2884.0625 4950.898438 2921.132812 C 4917.109375 2938.359375 4913.75 2967.5 4908.671875 3013.828125 C 4890.117188 3204.570312 4895.15625 3473.4375 4895.15625 3669.453125 C 4895.15625 3848.242188 4895.15625 4028.359375 4895.15625 4207.1875 C 4895.15625 4293.242188 4891.796875 4389.921875 4896.835938 4474.6875 C 4901.914062 4559.453125 4898.554688 4646.875 4905.3125 4731.640625 C 4920.507812 4742.226562 5001.5625 4758.125 5025.195312 4764.765625 C 5058.984375 4774.023438 5123.164062 4783.28125 5158.632812 4785.9375 C 5239.726562 4788.59375 5295.46875 4787.265625 5373.125 4774.023438 L 5464.335938 4748.867188 C 5496.445312 4738.28125 5509.960938 4732.96875 5542.03125 4711.796875 C 5643.398438 4645.546875 5700.820312 4560.78125 5717.695312 4429.6875 C 5746.40625 4225.703125 5672.109375 4065.46875 5562.304688 3980.703125 C 5460.976562 3903.867188 5327.539062 3883.984375 5194.101562 3903.867188 C 5145.117188 3910.507812 5097.851562 3923.75 5067.421875 3929.023438 Z M 5067.421875 3929.023438 " transform="matrix(0.1,0,0,-0.1,0,792)"/>
<path style=" stroke:none;fill-rule:evenodd;fill:rgb(78.361511%,57.597351%,81.378174%);fill-opacity:1;" d="M 376.015625 319.894531 C 377.199219 320.558594 388.515625 321.75 388.007812 319.496094 C 388.007812 309.167969 387.671875 297.511719 388.175781 287.445312 C 388.515625 282.28125 388.683594 276.851562 388.851562 271.683594 L 390.035156 256.851562 C 390.203125 251.15625 392.0625 246.917969 396.789062 244.402344 C 405.066406 239.898438 419.761719 242.945312 425.503906 241.753906 C 426.011719 239.367188 425.839844 227.449219 425.503906 224.535156 L 423.644531 224.535156 C 421.957031 224.269531 403.039062 225.328125 399.324219 225.460938 C 391.046875 225.59375 382.605469 225.859375 374.328125 225.726562 L 337.507812 224.800781 C 334.804688 224.667969 327.203125 224.136719 325.007812 224.535156 C 324.671875 226.652344 324.503906 240.5625 325.179688 241.753906 C 325.515625 242.28125 339.027344 242.148438 339.703125 242.148438 C 345.445312 242.148438 359.296875 243.210938 361.660156 249.300781 C 362.164062 250.757812 362.84375 253.804688 363.011719 255.261719 C 363.347656 257.644531 363.519531 259.632812 363.6875 262.148438 C 365.039062 272.480469 365.207031 293.671875 365.207031 304.664062 C 365.375 309.695312 365.375 314.597656 365.207031 319.496094 C 364.867188 321.085938 373.988281 319.894531 376.015625 319.894531 "/>
<path style="fill:none;stroke-width:0.0028;stroke-linecap:butt;stroke-linejoin:miter;stroke:rgb(78.361511%,57.597351%,81.378174%);stroke-opacity:1;stroke-miterlimit:2.61313;" d="M 3760.15625 4721.054688 C 3771.992188 4714.414062 3885.15625 4702.5 3880.078125 4725.039062 C 3880.078125 4828.320312 3876.71875 4944.882812 3881.757812 5045.546875 C 3885.15625 5097.1875 3886.835938 5151.484375 3888.515625 5203.164062 L 3900.351562 5351.484375 C 3902.03125 5408.4375 3920.625 5450.820312 3967.890625 5475.976562 C 4050.664062 5521.015625 4197.617188 5490.546875 4255.039062 5502.460938 C 4260.117188 5526.328125 4258.398438 5645.507812 4255.039062 5674.648438 L 4236.445312 5674.648438 C 4219.570312 5677.304688 4030.390625 5666.71875 3993.242188 5665.390625 C 3910.46875 5664.0625 3826.054688 5661.40625 3743.28125 5662.734375 L 3375.078125 5671.992188 C 3348.046875 5673.320312 3272.03125 5678.632812 3250.078125 5674.648438 C 3246.71875 5653.476562 3245.039062 5514.375 3251.796875 5502.460938 C 3255.15625 5497.1875 3390.273438 5498.515625 3397.03125 5498.515625 C 3454.453125 5498.515625 3592.96875 5487.890625 3616.601562 5426.992188 C 3621.640625 5412.421875 3628.4375 5381.953125 3630.117188 5367.382812 C 3633.476562 5343.554688 3635.195312 5323.671875 3636.875 5298.515625 C 3650.390625 5195.195312 3652.070312 4983.28125 3652.070312 4873.359375 C 3653.75 4823.046875 3653.75 4774.023438 3652.070312 4725.039062 C 3648.671875 4709.140625 3739.882812 4721.054688 3760.15625 4721.054688 Z M 3760.15625 4721.054688 " transform="matrix(0.1,0,0,-0.1,0,792)"/>
<path style=" stroke:none;fill-rule:evenodd;fill:rgb(78.361511%,57.597351%,81.378174%);fill-opacity:1;" d="M 364.699219 402.144531 C 365.207031 404.660156 364.191406 414.855469 363.855469 417.769531 C 363.347656 422.9375 362.84375 427.703125 361.996094 432.605469 C 356.929688 461.476562 340.378906 474.191406 313.691406 480.417969 C 311.835938 480.945312 311.328125 481.34375 310.3125 480.816406 C 311.664062 491.410156 312.171875 499.621094 312.003906 510.613281 C 322.136719 508.363281 328.554688 505.714844 337.675781 501.476562 C 341.730469 499.621094 341.730469 499.488281 345.277344 497.503906 C 354.230469 492.734375 363.6875 483.992188 369.765625 475.914062 C 382.773438 458.960938 384.800781 444.789062 386.65625 423.730469 L 387.839844 402.011719 C 387.839844 397.242188 371.625 396.050781 371.964844 401.082031 C 371.457031 401.082031 365.375 396.84375 364.699219 402.144531 "/>
<path style="fill:none;stroke-width:0.0028;stroke-linecap:butt;stroke-linejoin:miter;stroke:rgb(78.361511%,57.597351%,81.378174%);stroke-opacity:1;stroke-miterlimit:2.61313;" d="M 3646.992188 3898.554688 C 3652.070312 3873.398438 3641.914062 3771.445312 3638.554688 3742.304688 C 3633.476562 3690.625 3628.4375 3642.96875 3619.960938 3593.945312 C 3569.296875 3305.234375 3403.789062 3178.085938 3136.914062 3115.820312 C 3118.359375 3110.546875 3113.28125 3106.5625 3103.125 3111.835938 C 3116.640625 3005.898438 3121.71875 2923.789062 3120.039062 2813.867188 C 3221.367188 2836.367188 3285.546875 2862.851562 3376.757812 2905.234375 C 3417.304688 2923.789062 3417.304688 2925.117188 3452.773438 2944.960938 C 3542.304688 2992.65625 3636.875 3080.078125 3697.65625 3160.859375 C 3827.734375 3330.390625 3848.007812 3472.109375 3866.5625 3682.695312 L 3878.398438 3899.882812 C 3878.398438 3947.578125 3716.25 3959.492188 3719.648438 3909.179688 C 3714.570312 3909.179688 3653.75 3951.5625 3646.992188 3898.554688 Z M 3646.992188 3898.554688 " transform="matrix(0.1,0,0,-0.1,0,792)"/>
<path style=" stroke:none;fill-rule:evenodd;fill:rgb(78.361511%,57.597351%,81.378174%);fill-opacity:1;" d="M 388.007812 396.050781 L 388.175781 324.53125 C 385.644531 322.542969 381.253906 325.457031 380.40625 325.855469 C 379.5625 331.417969 379.5625 337.246094 379.5625 342.941406 C 379.5625 350.226562 379.226562 393.800781 380.578125 395.121094 C 381.589844 395.785156 386.320312 395.917969 388.007812 396.050781 "/>
<path style="fill:none;stroke-width:0.0028;stroke-linecap:butt;stroke-linejoin:miter;stroke:rgb(78.361511%,57.597351%,81.378174%);stroke-opacity:1;stroke-miterlimit:2.61313;" d="M 3880.078125 3959.492188 L 3881.757812 4674.6875 C 3856.445312 4694.570312 3812.539062 4665.429688 3804.0625 4661.445312 C 3795.625 4605.820312 3795.625 4547.539062 3795.625 4490.585938 C 3795.625 4417.734375 3792.265625 3981.992188 3805.78125 3968.789062 C 3815.898438 3962.148438 3863.203125 3960.820312 3880.078125 3959.492188 Z M 3880.078125 3959.492188 " transform="matrix(0.1,0,0,-0.1,0,792)"/>
<path style=" stroke:none;fill-rule:evenodd;fill:rgb(78.361511%,57.597351%,81.378174%);fill-opacity:1;" d="M 365.039062 397.242188 L 367.910156 395.785156 C 369.261719 388.765625 369.089844 343.074219 368.414062 333.933594 C 368.753906 330.621094 367.910156 327.710938 367.738281 325.722656 C 367.570312 324.132812 365.039062 323.207031 365.207031 325.058594 C 365.714844 329.695312 365.207031 393.003906 365.039062 397.242188 "/>
<path style="fill:none;stroke-width:0.0028;stroke-linecap:butt;stroke-linejoin:miter;stroke:rgb(78.361511%,57.597351%,81.378174%);stroke-opacity:1;stroke-miterlimit:2.61313;" d="M 3650.390625 3947.578125 L 3679.101562 3962.148438 C 3692.617188 4032.34375 3690.898438 4489.257812 3684.140625 4580.664062 C 3687.539062 4613.789062 3679.101562 4642.890625 3677.382812 4662.773438 C 3675.703125 4678.671875 3650.390625 4687.929688 3652.070312 4669.414062 C 3657.148438 4623.046875 3652.070312 3989.960938 3650.390625 3947.578125 Z M 3650.390625 3947.578125 " transform="matrix(0.1,0,0,-0.1,0,792)"/>
<path style=" stroke:none;fill-rule:evenodd;fill:rgb(78.361511%,57.597351%,81.378174%);fill-opacity:1;" d="M 203.234375 368.765625 L 203.402344 348.898438 C 202.726562 349.296875 203.0625 349.164062 202.726562 349.960938 C 201.207031 353.269531 194.957031 368.105469 194.789062 369.03125 C 198.671875 371.945312 203.234375 370.886719 203.234375 368.765625 "/>
<path style="fill:none;stroke-width:0.0028;stroke-linecap:butt;stroke-linejoin:miter;stroke:rgb(78.361511%,57.597351%,81.378174%);stroke-opacity:1;stroke-miterlimit:2.61313;" d="M 2032.34375 4232.34375 L 2034.023438 4431.015625 C 2027.265625 4427.03125 2030.625 4428.359375 2027.265625 4420.390625 C 2012.070312 4387.304688 1949.570312 4238.945312 1947.890625 4229.6875 C 1986.71875 4200.546875 2032.34375 4211.132812 2032.34375 4232.34375 Z M 2032.34375 4232.34375 " transform="matrix(0.1,0,0,-0.1,0,792)"/>
<path style=" stroke:none;fill-rule:evenodd;fill:rgb(33.639526%,11.956787%,41.900635%);fill-opacity:1;" d="M 388.007812 396.050781 C 386.320312 395.917969 381.589844 395.785156 380.578125 395.121094 C 379.226562 393.800781 379.5625 350.226562 379.5625 342.941406 C 379.5625 337.246094 379.5625 331.417969 380.40625 325.855469 C 383.617188 324.929688 391.386719 324.53125 395.101562 324.53125 C 400.167969 324.53125 404.558594 325.058594 409.121094 326.515625 C 414.695312 328.105469 420.4375 331.683594 423.644531 336.1875 C 424.488281 337.378906 426.347656 339.894531 426.6875 341.484375 C 427.867188 343.074219 429.050781 348.769531 429.558594 351.152344 C 430.0625 354.992188 430.234375 359.230469 429.894531 363.203125 C 428.882812 376.582031 423.308594 388.632812 410.132812 393.664062 C 402.363281 396.710938 396.621094 396.183594 388.007812 396.050781 Z M 357.773438 323.207031 C 368.246094 324.929688 367.738281 322.808594 368.414062 333.933594 C 369.089844 343.074219 369.261719 388.765625 367.910156 395.785156 L 365.039062 397.242188 L 362.503906 398.832031 L 362.503906 401.613281 C 365.375 401.613281 368.921875 401.082031 371.964844 401.082031 C 389.695312 400.554688 407.261719 405.058594 423.984375 392.871094 L 429.894531 388.234375 C 432.089844 385.058594 433.78125 384.527344 436.820312 378.832031 C 443.40625 366.910156 444.253906 350.09375 438.339844 338.703125 C 432.089844 326.386719 420.773438 321.351562 407.429688 319.894531 C 398.648438 318.96875 385.304688 319.894531 376.015625 319.894531 C 373.484375 319.894531 363.855469 319.628906 361.152344 319.496094 L 357.773438 319.496094 L 357.773438 323.207031 "/>
<path style="fill:none;stroke-width:0.0028;stroke-linecap:butt;stroke-linejoin:miter;stroke:rgb(33.639526%,11.956787%,41.900635%);stroke-opacity:1;stroke-miterlimit:2.61313;" d="M 3880.078125 3959.492188 C 3863.203125 3960.820312 3815.898438 3962.148438 3805.78125 3968.789062 C 3792.265625 3981.992188 3795.625 4417.734375 3795.625 4490.585938 C 3795.625 4547.539062 3795.625 4605.820312 3804.0625 4661.445312 C 3836.171875 4670.703125 3913.867188 4674.6875 3951.015625 4674.6875 C 4001.679688 4674.6875 4045.585938 4669.414062 4091.210938 4654.84375 C 4146.953125 4638.945312 4204.375 4603.164062 4236.445312 4558.125 C 4244.882812 4546.210938 4263.476562 4521.054688 4266.875 4505.15625 C 4278.671875 4489.257812 4290.507812 4432.304688 4295.585938 4408.476562 C 4300.625 4370.078125 4302.34375 4327.695312 4298.945312 4287.96875 C 4288.828125 4154.179688 4233.085938 4033.671875 4101.328125 3983.359375 C 4023.632812 3952.890625 3966.210938 3958.164062 3880.078125 3959.492188 Z M 3577.734375 4687.929688 C 3682.460938 4670.703125 3677.382812 4691.914062 3684.140625 4580.664062 C 3690.898438 4489.257812 3692.617188 4032.34375 3679.101562 3962.148438 L 3650.390625 3947.578125 L 3625.039062 3931.679688 L 3625.039062 3903.867188 C 3653.75 3903.867188 3689.21875 3909.179688 3719.648438 3909.179688 C 3896.953125 3914.453125 4072.617188 3869.414062 4239.84375 3991.289062 L 4298.945312 4037.65625 C 4320.898438 4069.414062 4337.8125 4074.726562 4368.203125 4131.679688 C 4434.0625 4250.898438 4442.539062 4419.0625 4383.398438 4532.96875 C 4320.898438 4656.132812 4207.734375 4706.484375 4074.296875 4721.054688 C 3986.484375 4730.3125 3853.046875 4721.054688 3760.15625 4721.054688 C 3734.84375 4721.054688 3638.554688 4723.710938 3611.523438 4725.039062 L 3577.734375 4725.039062 Z M 3577.734375 4687.929688 " transform="matrix(0.1,0,0,-0.1,0,792)"/>
<path style=" stroke:none;fill-rule:evenodd;fill:rgb(33.639526%,11.956787%,41.900635%);fill-opacity:1;" d="M 203.402344 348.898438 L 203.402344 348.371094 C 203.738281 346.914062 208.46875 336.054688 209.144531 334.859375 C 209.820312 335.65625 223.164062 367.441406 223.164062 368.503906 C 223.5 368.765625 223.5 367.972656 223.5 369.164062 L 194.789062 369.03125 C 194.957031 368.105469 201.207031 353.269531 202.726562 349.960938 C 203.0625 349.164062 202.726562 349.296875 203.402344 348.898438 Z M 203.402344 334.199219 C 202.726562 336.847656 200.699219 340.554688 199.6875 343.203125 L 180.601562 385.984375 C 174.6875 398.964844 175.703125 397.242188 167.597656 397.90625 L 167.597656 401.480469 C 173.167969 401.613281 181.277344 401.082031 188.199219 401.214844 C 190.058594 401.214844 192.761719 401.613281 194.617188 401.480469 L 194.617188 397.90625 C 192.425781 397.242188 187.355469 397.507812 185.667969 396.316406 C 183.640625 394.992188 185.667969 390.355469 186.511719 388.5 C 188.199219 383.867188 190.566406 377.90625 192.59375 373.667969 L 222.320312 373.667969 C 225.359375 373.667969 225.695312 373.269531 226.035156 374.460938 C 227.554688 379.230469 229.917969 384.527344 231.777344 389.296875 C 232.453125 391.019531 234.816406 395.652344 232.960938 396.84375 C 232.113281 397.507812 225.019531 398.035156 223.839844 397.640625 L 223.671875 401.480469 C 228.90625 401.480469 234.140625 401.214844 239.378906 401.214844 L 254.914062 401.480469 L 254.746094 398.035156 C 253.902344 397.375 250.1875 397.640625 248.667969 396.710938 C 247.148438 395.785156 246.472656 394.195312 245.457031 392.210938 C 243.9375 388.898438 242.417969 385.191406 240.898438 381.746094 L 218.265625 329.296875 C 216.914062 326.121094 214.886719 322.015625 213.875 318.835938 L 209.820312 318.835938 C 209.144531 320.953125 204.414062 332.742188 203.402344 334.199219 "/>
<path style="fill:none;stroke-width:0.0028;stroke-linecap:butt;stroke-linejoin:miter;stroke:rgb(33.639526%,11.956787%,41.900635%);stroke-opacity:1;stroke-miterlimit:2.61313;" d="M 2034.023438 4431.015625 L 2034.023438 4436.289062 C 2037.382812 4450.859375 2084.6875 4559.453125 2091.445312 4571.40625 C 2098.203125 4563.4375 2231.640625 4245.585938 2231.640625 4234.960938 C 2235 4232.34375 2235 4240.273438 2235 4228.359375 L 1947.890625 4229.6875 C 1949.570312 4238.945312 2012.070312 4387.304688 2027.265625 4420.390625 C 2030.625 4428.359375 2027.265625 4427.03125 2034.023438 4431.015625 Z M 2034.023438 4578.007812 C 2027.265625 4551.523438 2006.992188 4514.453125 1996.875 4487.96875 L 1806.015625 4060.15625 C 1746.875 3930.351562 1757.03125 3947.578125 1675.976562 3940.9375 L 1675.976562 3905.195312 C 1731.679688 3903.867188 1812.773438 3909.179688 1881.992188 3907.851562 C 1900.585938 3907.851562 1927.617188 3903.867188 1946.171875 3905.195312 L 1946.171875 3940.9375 C 1924.257812 3947.578125 1873.554688 3944.921875 1856.679688 3956.835938 C 1836.40625 3970.078125 1856.679688 4016.445312 1865.117188 4035 C 1881.992188 4081.328125 1905.664062 4140.9375 1925.9375 4183.320312 L 2223.203125 4183.320312 C 2253.59375 4183.320312 2256.953125 4187.304688 2260.351562 4175.390625 C 2275.546875 4127.695312 2299.179688 4074.726562 2317.773438 4027.03125 C 2324.53125 4009.804688 2348.164062 3963.476562 2329.609375 3951.5625 C 2321.132812 3944.921875 2250.195312 3939.648438 2238.398438 3943.59375 L 2236.71875 3905.195312 C 2289.0625 3905.195312 2341.40625 3907.851562 2393.789062 3907.851562 L 2549.140625 3905.195312 L 2547.460938 3939.648438 C 2539.023438 3946.25 2501.875 3943.59375 2486.679688 3952.890625 C 2471.484375 3962.148438 2464.726562 3978.046875 2454.570312 3997.890625 C 2439.375 4031.015625 2424.179688 4068.085938 2408.984375 4102.539062 L 2182.65625 4627.03125 C 2169.140625 4658.789062 2148.867188 4699.84375 2138.75 4731.640625 L 2098.203125 4731.640625 C 2091.445312 4710.46875 2044.140625 4592.578125 2034.023438 4578.007812 Z M 2034.023438 4578.007812 " transform="matrix(0.1,0,0,-0.1,0,792)"/>
<path style=" stroke:none;fill-rule:evenodd;fill:rgb(33.639526%,11.956787%,41.900635%);fill-opacity:1;" d="M 158.304688 338.171875 L 162.023438 338.171875 C 162.191406 331.683594 162.867188 325.855469 163.371094 319.496094 L 161.175781 319.628906 C 156.109375 319.363281 150.199219 319.628906 144.964844 319.761719 C 139.390625 319.761719 133.816406 319.894531 128.242188 319.894531 C 117.09375 319.761719 106.117188 319.628906 94.96875 319.496094 C 95.136719 322.542969 95.308594 325.589844 95.476562 328.636719 C 95.644531 331.816406 95.476562 335.125 95.476562 338.304688 L 99.191406 338.304688 C 99.359375 335.65625 99.699219 332.476562 100.035156 329.695312 C 100.710938 325.855469 101.050781 325.457031 104.765625 325.058594 C 107.128906 324.796875 121.148438 324.664062 123.34375 324.929688 C 124.1875 338.304688 123.683594 353.402344 123.683594 367.046875 C 123.683594 374.0625 123.683594 381.085938 123.511719 387.972656 C 123.007812 398.832031 122.5 397.90625 112.027344 397.773438 L 112.027344 401.613281 C 120.8125 401.480469 128.75 401.214844 137.867188 401.347656 C 140.742188 401.347656 143.613281 401.746094 146.3125 401.480469 L 146.3125 397.90625 C 143.613281 397.773438 138.882812 398.171875 136.6875 396.976562 C 134.660156 395.917969 134.828125 391.28125 134.828125 388.234375 C 134.324219 374.859375 134.660156 359.097656 134.660156 345.589844 C 134.660156 338.96875 134.492188 331.285156 135.335938 324.796875 C 141.246094 324.796875 147.328125 324.796875 153.238281 325.191406 C 156.953125 325.324219 157.292969 325.988281 157.628906 329.695312 C 157.800781 332.078125 158.304688 336.054688 158.304688 338.171875 "/>
<path style="fill:none;stroke-width:0.0028;stroke-linecap:butt;stroke-linejoin:miter;stroke:rgb(33.639526%,11.956787%,41.900635%);stroke-opacity:1;stroke-miterlimit:2.61313;" d="M 1583.046875 4538.28125 L 1620.234375 4538.28125 C 1621.914062 4603.164062 1628.671875 4661.445312 1633.710938 4725.039062 L 1611.757812 4723.710938 C 1561.09375 4726.367188 1501.992188 4723.710938 1449.648438 4722.382812 C 1393.90625 4722.382812 1338.164062 4721.054688 1282.421875 4721.054688 C 1170.9375 4722.382812 1061.171875 4723.710938 949.6875 4725.039062 C 951.367188 4694.570312 953.085938 4664.101562 954.765625 4633.632812 C 956.445312 4601.835938 954.765625 4568.75 954.765625 4536.953125 L 991.914062 4536.953125 C 993.59375 4563.4375 996.992188 4595.234375 1000.351562 4623.046875 C 1007.109375 4661.445312 1010.507812 4665.429688 1047.65625 4669.414062 C 1071.289062 4672.03125 1211.484375 4673.359375 1233.4375 4670.703125 C 1241.875 4536.953125 1236.835938 4385.976562 1236.835938 4249.53125 C 1236.835938 4179.375 1236.835938 4109.140625 1235.117188 4040.273438 C 1230.078125 3931.679688 1225 3940.9375 1120.273438 3942.265625 L 1120.273438 3903.867188 C 1208.125 3905.195312 1287.5 3907.851562 1378.671875 3906.523438 C 1407.421875 3906.523438 1436.132812 3902.539062 1463.125 3905.195312 L 1463.125 3940.9375 C 1436.132812 3942.265625 1388.828125 3938.28125 1366.875 3950.234375 C 1346.601562 3960.820312 1348.28125 4007.1875 1348.28125 4037.65625 C 1343.242188 4171.40625 1346.601562 4329.023438 1346.601562 4464.101562 C 1346.601562 4530.3125 1344.921875 4607.148438 1353.359375 4672.03125 C 1412.460938 4672.03125 1473.28125 4672.03125 1532.382812 4668.085938 C 1569.53125 4666.757812 1572.929688 4660.117188 1576.289062 4623.046875 C 1578.007812 4599.21875 1583.046875 4559.453125 1583.046875 4538.28125 Z M 1583.046875 4538.28125 " transform="matrix(0.1,0,0,-0.1,0,792)"/>
</g>
</svg>
