<?xml version="1.0" encoding="UTF-8"?>
<svg xmlns="http://www.w3.org/2000/svg" xmlns:xlink="http://www.w3.org/1999/xlink" width="595pt" height="218pt" viewBox="0 0 595 218" version="1.1">
<defs>
<clipPath id="clip1">
  <path d="M 0 0.476562 L 594.597656 0.476562 L 594.597656 187 L 0 187 Z M 0 0.476562 "/>
</clipPath>
</defs>
<g id="surface1">
<path style=" stroke:none;fill-rule:nonzero;fill:rgb(5.098039%,31.372548%,37.647058%);fill-opacity:1;" d="M 435.824219 81.949219 L 436.308594 73.460938 C 436.304688 61.933594 434.019531 61.597656 433.757812 61.597656 C 433.746094 61.597656 432.636719 61.644531 431.027344 65.886719 C 429.765625 69.191406 428.769531 74.472656 428.066406 81.578125 C 428.0625 83.367188 428.03125 84.5625 427.960938 85.242188 C 427.890625 85.890625 427.761719 86.605469 427.574219 87.386719 L 427.574219 90.867188 C 427.574219 97.511719 428.664062 98.269531 428.710938 98.296875 C 428.671875 98.269531 429.855469 97.992188 432.300781 92.769531 C 434.269531 88.761719 435.449219 85.128906 435.824219 81.949219 "/>
<path style=" stroke:none;fill-rule:nonzero;fill:rgb(5.098039%,31.372548%,37.647058%);fill-opacity:1;" d="M 469.644531 116.347656 C 466.683594 116.347656 464.429688 113.445312 462.753906 107.476562 C 461.253906 102.128906 460.492188 93.792969 460.492188 82.695312 C 460.492188 81.761719 460.871094 80.421875 462.695312 79.363281 C 463.921875 78.652344 465.167969 78.289062 466.402344 78.289062 C 467.644531 78.289062 468.671875 78.609375 469.449219 79.242188 C 470.316406 79.949219 470.738281 81.078125 470.738281 82.695312 L 470.34375 92.890625 C 470.34375 96.839844 470.625 99.941406 471.183594 102.050781 C 471.730469 104.125 472.296875 104.382812 472.300781 104.386719 C 472.316406 104.382812 473.851562 104.300781 476.085938 97.074219 C 477.742188 91.523438 478.582031 84.828125 478.582031 77.179688 C 478.582031 76.164062 478.804688 75.253906 479.246094 74.464844 C 479.613281 73.796875 480.398438 72.941406 482.015625 72.691406 C 482.085938 72.679688 482.160156 72.675781 482.230469 72.675781 C 482.949219 72.675781 485.289062 72.945312 485.289062 76.394531 C 485.289062 85.570312 483.671875 94.507812 480.484375 102.957031 C 477.226562 111.960938 473.679688 116.347656 469.644531 116.347656 Z M 446.792969 114.113281 C 442.992188 113.0625 442.992188 107.105469 442.992188 105.148438 C 442.992188 103.667969 443.09375 101.917969 443.292969 99.941406 C 443.488281 98.011719 443.652344 96.355469 443.785156 94.976562 L 444.566406 83.882812 C 444.5625 82.347656 444.949219 81.164062 445.746094 80.371094 C 446.480469 79.636719 447.433594 79.171875 448.585938 78.992188 C 448.65625 78.984375 448.730469 78.976562 448.800781 78.976562 C 450.097656 78.976562 451.261719 79.480469 452.25 80.46875 C 453.230469 81.453125 453.726562 82.730469 453.726562 84.269531 C 453.726562 86.890625 453.355469 90.378906 452.625 94.636719 L 451.664062 102.957031 C 451.671875 104.617188 451.925781 106.054688 452.417969 107.230469 C 452.828125 107.984375 453.410156 108.488281 454.199219 108.765625 C 456.570312 109.292969 457.070312 110.460938 457.070312 111.351562 C 457.070312 112.738281 456.328125 115.066406 451.359375 115.066406 C 450.28125 115.066406 448.789062 114.757812 446.792969 114.113281 Z M 430.429688 117.890625 C 428.902344 117.34375 427.4375 116.484375 426.070312 115.332031 C 425.949219 115.230469 425.847656 115.109375 425.769531 114.976562 L 423.398438 110.914062 C 423.371094 110.929688 423.347656 110.941406 423.324219 110.957031 C 422.355469 111.484375 421.664062 111.71875 421.074219 111.71875 C 420.1875 111.71875 419.175781 111.167969 419.007812 109.625 C 418.996094 109.503906 418.996094 109.378906 419.019531 109.257812 L 419.609375 105.808594 C 419.8125 104.855469 419.972656 104.035156 420.101562 103.296875 C 420.214844 102.648438 420.273438 102.066406 420.277344 101.570312 L 419.988281 98.785156 C 419.789062 97.601562 419.6875 94.890625 419.6875 90.574219 C 419.6875 88.195312 419.738281 85.839844 419.835938 83.574219 C 419.9375 81.277344 420.121094 78.976562 420.386719 76.730469 C 420.648438 74.492188 421.015625 72.03125 421.480469 69.414062 C 421.941406 66.808594 422.539062 63.921875 423.261719 60.828125 C 424.859375 53.988281 428.160156 50.519531 433.070312 50.519531 C 434.464844 50.519531 435.96875 50.917969 437.535156 51.703125 C 439.269531 52.570312 440.585938 54.421875 441.566406 57.363281 C 442.519531 60.027344 443.011719 63.160156 443.011719 66.644531 C 443.011719 73.90625 441.664062 81.636719 439.007812 89.613281 C 436.386719 97.554688 433.902344 101.871094 431.242188 103.070312 L 430.875 103.851562 L 430.523438 106.417969 C 430.539062 108.109375 430.984375 109.460938 431.886719 110.546875 C 432.71875 111.554688 434.40625 112.066406 436.90625 112.066406 C 437.363281 112.066406 437.863281 112.179688 438.433594 112.421875 C 438.902344 112.613281 439.378906 112.871094 439.851562 113.1875 C 440.335938 113.507812 440.753906 113.867188 441.097656 114.253906 C 441.585938 114.804688 441.832031 115.382812 441.832031 115.980469 C 441.832031 118.710938 437.550781 118.710938 435.726562 118.710938 C 433.734375 118.710938 431.953125 118.433594 430.429688 117.890625 Z M 453.988281 67.53125 C 454.617188 67.9375 455.152344 68.492188 455.585938 69.1875 C 456.058594 69.941406 456.285156 70.878906 456.285156 72.058594 C 456.285156 73.550781 455.820312 74.878906 454.902344 76.003906 C 453.921875 77.210938 452.527344 77.847656 450.867188 77.847656 C 450.8125 77.847656 450.761719 77.84375 450.710938 77.835938 L 449.824219 77.738281 C 449.789062 77.734375 449.753906 77.730469 449.71875 77.722656 C 448.390625 77.472656 447.285156 76.910156 446.433594 76.058594 C 446.375 76.003906 446.328125 75.941406 446.28125 75.878906 C 445.679688 75.019531 445.332031 73.894531 445.253906 72.53125 C 445.253906 70.964844 445.71875 69.636719 446.636719 68.507812 C 447.613281 67.304688 449.007812 66.667969 450.671875 66.667969 C 450.992188 66.667969 451.410156 66.703125 451.984375 66.777344 C 452.6875 66.875 453.359375 67.128906 453.988281 67.53125 Z M 501.894531 74.742188 C 503.628906 74.742188 505.355469 75.390625 507.023438 76.664062 L 511.582031 79.484375 C 513.398438 80.472656 514.390625 82.105469 514.390625 84.171875 C 514.390625 84.222656 514.390625 84.269531 514.382812 84.316406 C 513.050781 96.339844 509.648438 102.621094 503.988281 103.527344 C 499.480469 104.261719 497.875 105.402344 497.875 106.230469 C 497.875 108.210938 498.535156 109.917969 499.894531 111.449219 C 501.21875 112.773438 502.664062 113.441406 504.253906 113.441406 C 505.539062 113.441406 506.613281 113.03125 507.535156 112.1875 C 508.472656 111.324219 509.15625 109.863281 509.558594 107.851562 C 509.621094 106.765625 510.371094 105.566406 512.316406 105.566406 C 513.273438 105.566406 514.144531 105.925781 514.832031 106.609375 C 515.347656 107.132812 515.90625 108.066406 515.652344 109.597656 C 515.648438 109.628906 515.640625 109.660156 515.632812 109.691406 C 514.972656 112.40625 513.558594 114.640625 511.421875 116.339844 C 509.390625 118.160156 506.894531 119.105469 504.058594 119.105469 C 501.539062 119.105469 499.296875 118.585938 497.390625 117.558594 C 495.492188 116.535156 493.902344 115.074219 492.671875 113.222656 C 491.472656 111.421875 490.566406 109.273438 489.976562 106.835938 C 489.398438 104.449219 489.101562 101.792969 489.101562 98.941406 C 489.101562 93 490.234375 87.511719 492.46875 82.636719 C 494.941406 77.394531 498.109375 74.742188 501.894531 74.742188 Z M 525.976562 70.324219 L 527.753906 54.96875 C 528.011719 53.398438 528.636719 52.226562 529.617188 51.425781 C 530.539062 50.671875 531.671875 50.203125 532.984375 50.039062 C 533.042969 50.03125 533.101562 50.027344 533.160156 50.027344 C 534.976562 50.027344 536.53125 50.8125 537.789062 52.363281 C 538.964844 53.816406 539.5625 55.9375 539.5625 58.667969 L 539.5625 59.851562 C 539.5625 59.953125 539.550781 60.054688 539.527344 60.15625 L 535.886719 75.421875 C 534.9375 80.125 534.449219 84.871094 534.449219 89.488281 L 534.449219 92.839844 C 534.449219 93.78125 534.480469 94.640625 534.542969 95.386719 L 535.226562 100.644531 C 535.230469 100.699219 535.234375 100.757812 535.234375 100.8125 C 535.234375 102.476562 534.445312 103.335938 533.777344 103.765625 C 532.996094 104.273438 532.027344 104.53125 530.898438 104.53125 C 529.152344 104.53125 526.902344 103.539062 526.09375 98.820312 C 525.558594 95.714844 525.285156 91.019531 525.285156 84.863281 Z M 536.238281 116.898438 C 535.144531 118.167969 533.515625 118.808594 531.390625 118.808594 C 529.488281 118.808594 527.886719 118.132812 526.632812 116.796875 C 526.609375 116.773438 526.589844 116.746094 526.570312 116.722656 C 525.523438 115.429688 524.992188 113.957031 524.992188 112.335938 C 524.992188 110.636719 525.515625 109.164062 526.546875 107.96875 C 527.636719 106.699219 529.265625 106.058594 531.390625 106.058594 C 533.390625 106.058594 534.992188 106.753906 536.148438 108.125 C 537.238281 109.421875 537.792969 110.90625 537.792969 112.53125 C 537.792969 114.230469 537.269531 115.703125 536.238281 116.898438 Z M 386.160156 105.609375 C 387.980469 106.941406 389.898438 107.609375 391.917969 107.609375 C 394.554688 107.609375 397.214844 106.226562 399.902344 103.46875 L 408.457031 106.265625 C 404.867188 112.003906 399.261719 114.875 391.632812 114.875 C 385.550781 114.875 380.804688 113.238281 377.394531 109.96875 C 373.984375 106.699219 372.28125 102.402344 372.28125 97.074219 C 372.28125 91.648438 374.039062 87.117188 377.554688 83.484375 C 381.070312 79.855469 385.550781 78.035156 390.992188 78.035156 C 394.9375 78.035156 398.34375 79.054688 401.222656 81.089844 C 404.09375 83.121094 406.089844 85.65625 407.207031 88.679688 C 408.324219 91.710938 408.882812 95.089844 408.882812 98.816406 L 383.1875 98.816406 C 383.351562 102.015625 384.34375 104.277344 386.160156 105.609375 Z M 347.507812 87.953125 C 345.0625 87.953125 342.414062 88.753906 339.5625 90.351562 L 339.5625 105.972656 L 345.265625 105.972656 L 345.265625 114.074219 L 328.546875 114.074219 L 328.546875 93.804688 C 328.546875 89.90625 327.050781 87.953125 324.058594 87.953125 C 321.726562 87.953125 319.054688 88.753906 316.039062 90.351562 L 316.039062 105.972656 L 321.738281 105.972656 L 321.738281 114.074219 L 299.320312 114.074219 L 299.320312 105.972656 L 305.023438 105.972656 L 305.023438 87.011719 L 299.320312 87.011719 L 299.320312 78.910156 L 316.039062 78.910156 L 316.039062 81.777344 C 319.789062 79.503906 323.523438 78.363281 327.230469 78.363281 C 331.671875 78.363281 335.117188 79.960938 337.566406 83.160156 C 342.007812 79.960938 346.652344 78.363281 351.5 78.363281 C 354.375 78.363281 356.710938 78.902344 358.503906 79.980469 C 360.296875 81.058594 361.527344 82.503906 362.191406 84.320312 C 362.859375 86.136719 363.191406 88.886719 363.191406 92.566406 L 363.191406 105.972656 L 368.894531 105.972656 L 368.894531 114.074219 L 352.179688 114.074219 L 352.179688 93.476562 C 352.179688 89.796875 350.621094 87.953125 347.507812 87.953125 Z M 295.828125 114.074219 L 274.445312 114.074219 L 274.445312 105.972656 L 279.683594 105.972656 L 279.683594 87.011719 L 274.445312 87.011719 L 274.445312 78.910156 L 290.695312 78.910156 L 290.695312 105.972656 L 295.828125 105.972656 Z M 252.023438 105.417969 L 252.023438 87.011719 L 247.640625 87.011719 L 247.640625 78.910156 L 252.023438 78.910156 L 252.023438 73.386719 L 263.039062 65.320312 L 263.039062 78.910156 L 269.382812 78.910156 L 269.382812 87.011719 L 263.039062 87.011719 L 263.039062 102.261719 C 263.039062 103.644531 263.210938 104.574219 263.554688 105.046875 C 263.898438 105.519531 264.6875 105.753906 265.925781 105.753906 C 266.945312 105.753906 268.101562 105.515625 269.382812 105.03125 L 269.382812 112.804688 C 266.554688 113.992188 263.785156 114.582031 261.078125 114.582031 C 255.042969 114.582031 252.023438 111.527344 252.023438 105.417969 Z M 219.234375 114.582031 C 215.8125 114.582031 212.859375 113.589844 210.378906 111.605469 C 207.894531 109.621094 206.652344 106.953125 206.652344 103.613281 C 206.652344 100.246094 207.960938 97.425781 210.574219 95.148438 C 213.1875 92.871094 216.5625 91.734375 220.695312 91.734375 C 223 91.734375 225.652344 92.328125 228.644531 93.511719 L 228.644531 91.367188 C 228.644531 89.578125 228.050781 88.105469 226.863281 86.953125 C 225.675781 85.804688 224.082031 85.230469 222.085938 85.230469 C 219.613281 85.230469 217.5 86.152344 215.742188 87.992188 L 206.867188 86.355469 C 209.433594 80.8125 215.003906 78.035156 223.582031 78.035156 C 226.910156 78.035156 229.664062 78.417969 231.851562 79.179688 C 234.039062 79.945312 235.664062 80.929688 236.734375 82.140625 C 237.804688 83.355469 238.558594 84.679688 238.996094 86.121094 C 239.4375 87.5625 239.65625 89.90625 239.65625 93.148438 L 239.65625 105.972656 L 245.21875 105.972656 L 245.21875 114.074219 L 228.644531 114.074219 L 228.644531 111.296875 C 225.675781 113.488281 222.539062 114.582031 219.234375 114.582031 Z M 180.921875 105.972656 L 186.160156 105.972656 L 186.160156 87.011719 L 180.921875 87.011719 L 180.921875 78.910156 L 197.171875 78.910156 L 197.171875 105.972656 L 202.304688 105.972656 L 202.304688 114.074219 L 180.921875 114.074219 Z M 161.886719 114.582031 L 152.515625 114.582031 L 140.859375 87.011719 L 135.867188 87.011719 L 135.867188 78.910156 L 156.789062 78.910156 L 156.789062 87.011719 L 152.5 87.011719 L 157.90625 103.015625 L 164.246094 87.011719 L 159.714844 87.011719 L 159.714844 78.910156 L 177.996094 78.910156 L 177.996094 87.011719 L 173.078125 87.011719 Z M 134.621094 114.074219 L 113.238281 114.074219 L 113.238281 105.972656 L 118.476562 105.972656 L 118.476562 87.011719 L 113.238281 87.011719 L 113.238281 78.910156 L 129.488281 78.910156 L 129.488281 105.972656 L 134.621094 105.972656 Z M 101.867188 105.972656 L 101.867188 114.074219 L 77.59375 114.074219 L 77.59375 105.972656 L 83.972656 105.972656 L 83.972656 87.011719 L 77.988281 87.011719 L 77.988281 78.910156 L 94.0625 78.910156 L 94.0625 87.847656 C 94.679688 85.277344 96.085938 83.054688 98.285156 81.179688 C 100.480469 79.304688 103.078125 78.363281 106.074219 78.363281 C 106.570312 78.363281 107.164062 78.378906 107.855469 78.398438 L 107.855469 89.007812 C 105.074219 89.007812 102.804688 89.324219 101.046875 89.953125 C 99.289062 90.582031 97.839844 91.964844 96.699219 94.09375 C 95.558594 96.226562 94.988281 98.746094 94.988281 101.648438 L 94.988281 105.972656 Z M 56.28125 105.417969 L 56.28125 87.011719 L 51.898438 87.011719 L 51.898438 78.910156 L 56.28125 78.910156 L 56.28125 73.386719 L 67.292969 65.320312 L 67.292969 78.910156 L 73.640625 78.910156 L 73.640625 87.011719 L 67.292969 87.011719 L 67.292969 102.261719 C 67.292969 103.644531 67.46875 104.574219 67.8125 105.046875 C 68.15625 105.519531 68.945312 105.753906 70.183594 105.753906 C 71.203125 105.753906 72.355469 105.515625 73.640625 105.03125 L 73.640625 112.804688 C 70.8125 113.992188 68.042969 114.582031 65.335938 114.582031 C 59.296875 114.582031 56.28125 111.527344 56.28125 105.417969 Z M 119.847656 64.480469 C 121.023438 63.273438 122.445312 62.671875 124.105469 62.671875 C 125.792969 62.671875 127.21875 63.273438 128.382812 64.480469 C 129.546875 65.6875 130.132812 67.136719 130.132812 68.828125 C 130.132812 70.519531 129.542969 71.960938 128.367188 73.15625 C 127.191406 74.351562 125.769531 74.949219 124.105469 74.949219 C 122.46875 74.949219 121.054688 74.34375 119.867188 73.136719 C 118.679688 71.929688 118.085938 70.492188 118.085938 68.828125 C 118.085938 67.136719 118.671875 65.6875 119.847656 64.480469 Z M 185.769531 68.828125 C 185.769531 67.136719 186.355469 65.6875 187.53125 64.480469 C 188.707031 63.273438 190.128906 62.671875 191.789062 62.671875 C 193.476562 62.671875 194.902344 63.273438 196.066406 64.480469 C 197.230469 65.6875 197.8125 67.136719 197.8125 68.828125 C 197.8125 70.519531 197.226562 71.960938 196.050781 73.15625 C 194.875 74.351562 193.453125 74.949219 191.789062 74.949219 C 190.152344 74.949219 188.738281 74.34375 187.550781 73.136719 C 186.359375 71.929688 185.769531 70.492188 185.769531 68.828125 Z M 281.054688 64.480469 C 282.230469 63.273438 283.652344 62.671875 285.3125 62.671875 C 287 62.671875 288.425781 63.273438 289.589844 64.480469 C 290.753906 65.6875 291.339844 67.136719 291.339844 68.828125 C 291.339844 70.519531 290.75 71.960938 289.574219 73.15625 C 288.398438 74.351562 286.976562 74.949219 285.3125 74.949219 C 283.675781 74.949219 282.261719 74.34375 281.074219 73.136719 C 279.886719 71.929688 279.289062 70.492188 279.289062 68.828125 C 279.289062 67.136719 279.878906 65.6875 281.054688 64.480469 Z M 484.046875 116.609375 C 484.367188 117.183594 484.695312 117.75 485.050781 118.289062 C 487.125 121.402344 489.816406 123.867188 493.046875 125.609375 C 496.300781 127.367188 500.003906 128.253906 504.058594 128.253906 C 509.050781 128.253906 513.632812 126.554688 517.324219 123.335938 C 517.90625 122.859375 518.445312 122.351562 518.96875 121.824219 C 519.136719 122.046875 519.296875 122.28125 519.476562 122.5 L 519.738281 122.820312 L 519.957031 123.050781 C 522.921875 126.21875 526.984375 127.960938 531.390625 127.960938 C 536.160156 127.960938 540.34375 126.152344 543.171875 122.867188 C 545.640625 120.003906 546.941406 116.429688 546.941406 112.53125 C 546.941406 109.269531 545.964844 106.179688 544.105469 103.492188 C 544.277344 102.628906 544.386719 101.738281 544.386719 100.8125 C 544.386719 100.402344 544.359375 99.980469 544.3125 99.566406 L 543.648438 94.441406 C 543.621094 94.09375 543.597656 93.566406 543.597656 92.839844 L 543.597656 89.488281 C 543.597656 85.527344 544.011719 81.453125 544.828125 77.382812 L 548.414062 62.335938 C 548.613281 61.523438 548.714844 60.6875 548.714844 59.847656 L 548.714844 58.667969 C 548.714844 53.789062 547.429688 49.734375 544.898438 46.601562 C 541.90625 42.910156 537.738281 40.878906 533.160156 40.878906 C 532.765625 40.878906 532.359375 40.898438 531.957031 40.945312 L 531.835938 40.960938 C 528.824219 41.339844 526.050781 42.515625 523.832031 44.339844 C 521.9375 45.886719 519.511719 48.726562 518.726562 53.480469 L 518.691406 53.699219 L 516.851562 69.578125 L 516.742188 71.914062 C 516.570312 71.808594 516.402344 71.699219 516.226562 71.597656 L 512.164062 69.085938 C 509.011719 66.800781 505.472656 65.59375 501.894531 65.59375 C 499.453125 65.59375 495.808594 66.148438 492.128906 68.722656 C 490.101562 65.699219 486.765625 63.523438 482.230469 63.523438 C 481.71875 63.523438 481.199219 63.5625 480.609375 63.648438 C 476.582031 64.277344 473.183594 66.574219 471.289062 69.945312 C 469.769531 69.414062 468.125 69.140625 466.402344 69.140625 C 465.992188 69.140625 465.585938 69.160156 465.179688 69.191406 C 464.867188 67.429688 464.257812 65.804688 463.34375 64.332031 C 462.191406 62.488281 460.710938 60.976562 458.929688 59.832031 C 457.171875 58.703125 455.246094 57.988281 453.171875 57.707031 C 452.402344 57.605469 451.742188 57.550781 451.136719 57.527344 C 450.878906 56.441406 450.574219 55.386719 450.214844 54.371094 C 448.449219 49.136719 445.5625 45.484375 441.636719 43.523438 C 438.785156 42.09375 435.902344 41.367188 433.070312 41.367188 C 428.664062 41.367188 418.019531 43.0625 414.351562 58.746094 C 413.589844 62.007812 412.957031 65.0625 412.46875 67.820312 C 411.976562 70.605469 411.582031 73.246094 411.300781 75.65625 C 411.21875 76.335938 411.164062 77.023438 411.097656 77.710938 C 409.765625 76.214844 408.238281 74.847656 406.503906 73.621094 C 402.066406 70.480469 396.847656 68.886719 390.992188 68.886719 C 383.113281 68.886719 376.195312 71.734375 370.980469 77.121094 C 370.5 77.617188 370.050781 78.128906 369.613281 78.652344 C 368.125 76.007812 365.953125 73.78125 363.210938 72.132812 C 359.980469 70.195312 356.039062 69.214844 351.5 69.214844 C 347.035156 69.214844 342.695312 70.164062 338.539062 72.050781 C 335.261719 70.179688 331.449219 69.214844 327.230469 69.214844 C 325.40625 69.214844 323.589844 69.394531 321.777344 69.757812 L 300.445312 69.757812 C 300.460938 69.449219 300.488281 69.140625 300.488281 68.828125 C 300.488281 64.753906 298.996094 61.050781 296.179688 58.132812 C 293.269531 55.113281 289.515625 53.519531 285.3125 53.519531 C 281.15625 53.519531 277.417969 55.101562 274.503906 58.09375 C 273.585938 59.035156 272.820312 60.066406 272.1875 61.160156 L 272.1875 47.277344 L 242.875 68.746094 L 242.875 69.757812 L 238.492188 69.757812 L 238.492188 72.128906 C 237.378906 71.527344 236.171875 70.996094 234.867188 70.542969 C 231.671875 69.429688 227.984375 68.886719 223.582031 68.886719 C 215.828125 68.886719 210.285156 70.75 206.320312 73.390625 L 206.320312 73.289062 C 206.746094 71.871094 206.964844 70.378906 206.964844 68.828125 C 206.964844 64.753906 205.472656 61.050781 202.65625 58.132812 C 199.746094 55.113281 195.988281 53.519531 191.789062 53.519531 C 187.632812 53.519531 183.894531 55.101562 180.980469 58.09375 C 178.125 61.023438 176.617188 64.734375 176.617188 68.828125 C 176.617188 69.140625 176.644531 69.449219 176.660156 69.757812 L 139.238281 69.757812 C 139.253906 69.449219 139.28125 69.140625 139.28125 68.828125 C 139.28125 64.753906 137.789062 61.050781 134.972656 58.132812 C 132.0625 55.113281 128.308594 53.519531 124.105469 53.519531 C 119.949219 53.519531 116.210938 55.101562 113.296875 58.09375 C 110.441406 61.023438 108.933594 64.734375 108.933594 68.828125 C 108.933594 68.980469 108.953125 69.128906 108.957031 69.28125 L 108.160156 69.253906 C 107.351562 69.230469 106.65625 69.214844 106.074219 69.214844 C 104.394531 69.214844 102.757812 69.398438 101.183594 69.757812 L 76.445312 69.757812 L 76.445312 47.277344 L 47.132812 68.746094 L 47.132812 69.757812 L 42.746094 69.757812 L 42.746094 96.160156 L 47.132812 96.160156 L 47.132812 105.417969 C 47.132812 116.542969 54.277344 123.734375 65.335938 123.734375 C 67.082031 123.734375 68.84375 123.558594 70.605469 123.226562 L 143.769531 123.226562 L 143.769531 117.402344 L 146.449219 123.734375 L 168.050781 123.734375 L 171.769531 114.5625 L 171.769531 123.226562 L 211.453125 123.226562 L 211.453125 122.492188 C 213.878906 123.316406 216.480469 123.734375 219.234375 123.734375 C 220.902344 123.734375 222.539062 123.5625 224.144531 123.226562 L 254.367188 123.226562 L 254.367188 122.695312 C 256.394531 123.363281 258.632812 123.734375 261.078125 123.734375 C 262.824219 123.734375 264.585938 123.558594 266.351562 123.226562 L 378.042969 123.226562 L 378.042969 121.304688 C 381.976562 123.109375 386.515625 124.023438 391.632812 124.023438 C 401.347656 124.023438 407.8125 120.460938 412.066406 116.285156 C 413.621094 118.441406 415.886719 119.980469 418.527344 120.585938 C 419.007812 121.226562 419.558594 121.8125 420.171875 122.328125 C 422.375 124.183594 424.789062 125.589844 427.355469 126.507812 C 429.871094 127.40625 432.6875 127.863281 435.726562 127.863281 C 441.929688 127.863281 445.609375 126.054688 447.800781 123.832031 C 449.089844 124.085938 450.265625 124.21875 451.359375 124.21875 C 455.121094 124.21875 458.121094 123.308594 460.421875 121.855469 C 463.46875 124.6875 466.816406 125.5 469.644531 125.5 C 476.320312 125.5 480.933594 121.265625 484.046875 116.609375 "/>
<path style=" stroke:none;fill-rule:nonzero;fill:rgb(5.098039%,31.372548%,37.647058%);fill-opacity:1;" d="M 499.042969 99.121094 C 499.234375 99.332031 499.425781 99.46875 499.605469 99.523438 C 499.898438 99.613281 500.195312 99.65625 500.519531 99.65625 C 502.398438 99.65625 504.046875 98.566406 505.554688 96.328125 C 507.234375 93.921875 508.078125 91.332031 508.078125 88.605469 C 508.078125 87.128906 507.757812 85.871094 507.089844 84.757812 C 506.488281 83.753906 505.535156 83.085938 504.179688 82.71875 C 503.96875 82.65625 503.804688 82.632812 503.644531 82.632812 C 502.632812 82.632812 501.476562 83.8125 500.382812 85.957031 C 498.917969 89.015625 498.167969 92.234375 498.167969 95.496094 C 498.167969 96.539062 498.261719 97.363281 498.449219 97.949219 C 498.660156 98.613281 498.886719 98.953125 499.042969 99.121094 "/>
<path style=" stroke:none;fill-rule:nonzero;fill:rgb(5.098039%,31.372548%,37.647058%);fill-opacity:1;" d="M 228.644531 101.070312 C 225.984375 99.375 223.855469 98.527344 222.265625 98.527344 C 221.003906 98.527344 219.859375 98.902344 218.824219 99.652344 C 217.792969 100.402344 217.273438 101.492188 217.273438 102.921875 C 217.273438 104.207031 217.691406 105.308594 218.523438 106.226562 C 219.351562 107.148438 220.421875 107.609375 221.730469 107.609375 C 223.773438 107.609375 226.078125 106.386719 228.644531 103.9375 L 228.644531 101.070312 "/>
<path style=" stroke:none;fill-rule:nonzero;fill:rgb(5.098039%,31.372548%,37.647058%);fill-opacity:1;" d="M 390.421875 85.484375 C 386.382812 85.484375 384.027344 87.847656 383.363281 92.566406 L 397.800781 92.566406 C 397.542969 90.605469 396.789062 88.9375 395.539062 87.554688 C 394.289062 86.175781 392.582031 85.484375 390.421875 85.484375 "/>
<g clip-path="url(#clip1)" clip-rule="nonzero">
<path style=" stroke:none;fill-rule:nonzero;fill:rgb(5.098039%,31.372548%,37.647058%);fill-opacity:1;" d="M 555.800781 0.476562 L 38.796875 0.476562 C 17.40625 0.476562 0 17.882812 0 39.277344 L 0 147.214844 C 0 168.609375 17.40625 186.011719 38.796875 186.011719 L 108.472656 186.011719 L 108.472656 174.28125 L 38.796875 174.28125 C 23.871094 174.28125 11.730469 162.140625 11.730469 147.214844 L 11.730469 39.277344 C 11.730469 24.351562 23.871094 12.210938 38.796875 12.210938 L 555.800781 12.210938 C 570.722656 12.210938 582.867188 24.351562 582.867188 39.277344 L 582.867188 147.214844 C 582.867188 162.140625 570.722656 174.28125 555.800781 174.28125 L 472.765625 174.28125 L 472.765625 186.011719 L 555.800781 186.011719 C 577.191406 186.011719 594.597656 168.609375 594.597656 147.214844 L 594.597656 39.277344 C 594.597656 17.882812 577.191406 0.476562 555.800781 0.476562 "/>
</g>
<path style=" stroke:none;fill-rule:nonzero;fill:rgb(5.098039%,31.372548%,37.647058%);fill-opacity:1;" d="M 229.519531 204.199219 C 216.40625 204.199219 205.777344 193.566406 205.777344 180.453125 C 205.777344 167.339844 216.40625 156.707031 229.519531 156.707031 C 242.636719 156.707031 253.269531 167.339844 253.269531 180.453125 C 253.269531 193.566406 242.636719 204.199219 229.519531 204.199219 Z M 229.519531 146.566406 C 210.804688 146.566406 195.632812 161.738281 195.632812 180.453125 C 195.632812 199.167969 210.804688 214.339844 229.519531 214.339844 C 248.238281 214.339844 263.410156 199.167969 263.410156 180.453125 C 263.410156 161.738281 248.238281 146.566406 229.519531 146.566406 "/>
<path style=" stroke:none;fill-rule:nonzero;fill:rgb(5.098039%,31.372548%,37.647058%);fill-opacity:1;" d="M 233.433594 162.695312 C 231.8125 162.695312 230.5 164.007812 230.5 165.625 L 230.5 181.625 L 216.199219 190.859375 C 214.839844 191.738281 214.449219 193.554688 215.328125 194.914062 C 215.890625 195.78125 216.832031 196.257812 217.792969 196.257812 C 218.339844 196.257812 218.890625 196.105469 219.382812 195.785156 L 236.363281 184.820312 L 236.363281 165.625 C 236.363281 164.007812 235.050781 162.695312 233.433594 162.695312 "/>
<path style=" stroke:none;fill-rule:nonzero;fill:rgb(5.098039%,31.372548%,37.647058%);fill-opacity:1;" d="M 301.199219 155.367188 L 301.191406 155.363281 L 300.992188 155.882812 L 300.710938 156.570312 L 300.722656 156.570312 L 295.476562 170.136719 C 294.425781 168.210938 292.386719 166.902344 290.039062 166.902344 C 286.621094 166.902344 283.851562 169.671875 283.851562 173.089844 C 283.851562 176.503906 286.621094 179.273438 290.039062 179.273438 C 292.871094 179.273438 295.257812 177.363281 295.988281 174.761719 L 296.015625 174.773438 L 303.054688 156.570312 L 323.851562 156.570312 L 319.128906 168.777344 C 318.082031 166.851562 316.039062 165.542969 313.691406 165.542969 C 310.277344 165.542969 307.507812 168.3125 307.507812 171.730469 C 307.507812 175.144531 310.277344 177.914062 313.691406 177.914062 C 316.527344 177.914062 318.910156 176.003906 319.640625 173.402344 L 319.667969 173.414062 L 326.871094 154.789062 L 326.859375 154.78125 L 329.394531 148.550781 L 303.972656 148.550781 L 301.199219 155.367188 "/>
<path style=" stroke:none;fill-rule:nonzero;fill:rgb(5.098039%,31.372548%,37.647058%);fill-opacity:1;" d="M 305.132812 184.78125 L 300.335938 190.363281 L 300.332031 190.355469 L 299.976562 190.785156 L 299.488281 191.347656 L 299.503906 191.351562 L 290.214844 202.542969 C 289.832031 200.386719 288.3125 198.496094 286.085938 197.75 C 282.847656 196.664062 279.34375 198.410156 278.253906 201.648438 C 277.167969 204.886719 278.914062 208.390625 282.152344 209.476562 C 284.839844 210.378906 287.707031 209.328125 289.226562 207.09375 L 289.25 207.113281 L 301.714844 192.09375 L 321.429688 198.710938 L 313.070312 208.78125 C 312.691406 206.621094 311.171875 204.730469 308.945312 203.984375 C 305.707031 202.898438 302.199219 204.644531 301.113281 207.882812 C 300.027344 211.121094 301.769531 214.625 305.011719 215.710938 C 307.699219 216.613281 310.566406 215.5625 312.085938 213.328125 L 312.109375 213.347656 L 324.863281 197.980469 L 324.847656 197.96875 L 329.234375 192.867188 L 305.132812 184.78125 "/>
<path style=" stroke:none;fill-rule:nonzero;fill:rgb(5.098039%,31.372548%,37.647058%);fill-opacity:1;" d="M 393.398438 181.792969 L 391.027344 180.285156 C 388.734375 184.691406 384.96875 188.207031 380.390625 190.195312 C 380.777344 189.277344 381.058594 188.316406 381.183594 187.332031 C 381.324219 186.242188 381.332031 185.042969 382.039062 184.207031 C 382.617188 183.527344 383.53125 183.238281 384.207031 182.660156 C 385.300781 181.722656 385.640625 180.144531 386.664062 179.136719 C 387.125 178.683594 387.703125 178.367188 388.171875 177.921875 C 388.640625 177.480469 389.007812 176.835938 388.859375 176.207031 C 388.578125 175.019531 386.960938 174.953125 385.757812 174.71875 C 384.242188 174.421875 382.878906 173.40625 382.164062 172.039062 C 381.804688 171.347656 381.472656 170.46875 380.707031 170.335938 C 380.351562 170.273438 379.996094 170.402344 379.660156 170.527344 C 377.304688 171.417969 374.988281 172.40625 372.71875 173.488281 C 372.492188 173.597656 372.25 173.710938 371.996094 173.6875 C 371.753906 173.664062 371.539062 173.515625 371.347656 173.367188 C 369.78125 172.1875 368.457031 170.683594 367.480469 168.980469 C 367.304688 168.671875 367.128906 168.34375 366.828125 168.152344 C 366.21875 167.761719 365.425781 168.097656 364.761719 168.386719 C 364.09375 168.675781 363.207031 168.867188 362.738281 168.3125 C 362.230469 167.710938 362.679688 166.808594 363.132812 166.160156 C 363.578125 165.523438 364.113281 164.832031 364.882812 164.734375 C 366.214844 164.570312 367.265625 166.277344 368.585938 166.039062 C 369.359375 165.898438 369.863281 165.089844 369.933594 164.308594 C 370.003906 163.523438 369.742188 162.753906 369.507812 162.003906 C 369.234375 161.117188 369.160156 159.867188 370.03125 159.546875 C 370.695312 159.300781 371.789062 159.621094 371.890625 158.921875 C 371.921875 158.703125 371.796875 158.488281 371.742188 158.273438 C 371.546875 157.53125 372.164062 156.800781 372.855469 156.46875 C 373.546875 156.136719 374.335938 156.046875 375.023438 155.707031 C 375.273438 155.585938 375.523438 155.402344 375.582031 155.132812 C 375.65625 154.796875 375.402344 154.480469 375.144531 154.253906 C 374.03125 153.277344 372.476562 152.824219 371.011719 153.046875 C 370.300781 153.15625 369.601562 153.414062 368.886719 153.355469 C 368.171875 153.292969 367.414062 152.757812 367.457031 152.039062 C 367.09375 151.5625 366.378906 152.191406 366.203125 152.761719 C 366.023438 153.335938 365.652344 154.105469 365.085938 153.90625 C 364.871094 153.832031 364.730469 153.625 364.609375 153.429688 C 363.910156 152.316406 363.179688 151.027344 363.53125 149.761719 C 363.671875 149.257812 363.972656 148.8125 364.121094 148.308594 C 364.242188 147.890625 364.210938 147.394531 363.949219 147.070312 C 366.539062 146.125 369.335938 145.605469 372.25 145.605469 C 385.640625 145.605469 396.53125 156.5 396.53125 169.886719 C 396.53125 174.210938 395.386719 178.273438 393.398438 181.792969 Z M 371.773438 191.980469 C 359.789062 191.980469 350.074219 182.265625 350.074219 170.28125 C 350.074219 166.433594 351.085938 162.828125 352.84375 159.695312 C 353.1875 160.214844 353.511719 160.746094 353.632812 161.335938 C 353.722656 161.769531 353.699219 162.222656 353.832031 162.644531 C 354.234375 163.90625 355.78125 164.316406 356.777344 165.1875 C 358.328125 166.542969 358.503906 169.039062 360.109375 170.332031 C 362.183594 171.992188 365.613281 170.863281 367.621094 172.605469 C 368.34375 173.234375 368.839844 174.203125 369.757812 174.464844 C 370.089844 175.785156 370 177.207031 369.511719 178.472656 C 369.398438 178.765625 369.261719 179.0625 369.28125 179.375 C 369.304688 179.753906 369.546875 180.082031 369.78125 180.382812 C 370.65625 181.503906 371.519531 182.636719 372.371094 183.773438 C 373.046875 184.679688 373.730469 185.621094 374.023438 186.714844 C 374.460938 188.367188 373.96875 190.191406 374.441406 191.808594 C 373.566406 191.914062 372.675781 191.980469 371.773438 191.980469 Z M 372.25 143.601562 C 363.429688 143.601562 355.617188 147.972656 350.847656 154.660156 L 347.21875 152.347656 C 343.539062 157.375 341.363281 163.574219 341.363281 170.28125 C 341.363281 185.296875 352.25 197.765625 366.558594 200.238281 L 366.558594 205.5 C 360.152344 206.160156 354.703125 208.347656 351.46875 211.363281 L 351.46875 215.800781 L 389.714844 215.800781 L 389.714844 211.363281 C 386.480469 208.347656 381.03125 206.160156 374.625 205.5 L 374.625 200.542969 C 384.871094 199.589844 393.648438 193.558594 398.394531 184.980469 L 395.089844 182.875 C 397.277344 179.039062 398.535156 174.609375 398.535156 169.886719 C 398.535156 155.394531 386.746094 143.601562 372.25 143.601562 "/>
<path style=" stroke:none;fill-rule:nonzero;fill:rgb(5.098039%,31.372548%,37.647058%);fill-opacity:1;" d="M 131.105469 149.152344 C 124.429688 154.144531 122.738281 163.332031 126.957031 170.320312 L 152.585938 151.164062 C 147.074219 145.140625 137.785156 144.160156 131.105469 149.152344 "/>
<path style=" stroke:none;fill-rule:nonzero;fill:rgb(5.098039%,31.372548%,37.647058%);fill-opacity:1;" d="M 154.738281 154.4375 L 129.484375 173.3125 L 138.535156 176.109375 L 154.859375 163.90625 L 154.738281 154.4375 "/>
<path style=" stroke:none;fill-rule:nonzero;fill:rgb(5.098039%,31.372548%,37.647058%);fill-opacity:1;" d="M 162.109375 190.625 C 161.191406 191.308594 159.886719 191.121094 159.199219 190.207031 L 154.078125 183.355469 C 153.394531 182.441406 153.585938 181.132812 154.5 180.449219 C 155.414062 179.761719 156.722656 179.953125 157.40625 180.867188 L 162.527344 187.71875 C 163.210938 188.632812 163.023438 189.941406 162.109375 190.625 Z M 183.101562 206.664062 L 183.03125 206.558594 C 182.902344 206.308594 182.757812 206.0625 182.585938 205.832031 C 182.5625 205.796875 182.53125 205.765625 182.503906 205.734375 L 157.332031 166.277344 L 140.109375 179.152344 L 170.929688 214.40625 C 170.953125 214.433594 170.96875 214.46875 170.992188 214.5 C 171.164062 214.730469 171.359375 214.9375 171.566406 215.132812 L 171.648438 215.226562 L 171.660156 215.21875 C 173.824219 217.175781 177.519531 217.148438 180.398438 214.996094 C 183.28125 212.839844 184.355469 209.304688 183.089844 206.675781 L 183.101562 206.664062 "/>
<path style=" stroke:none;fill-rule:nonzero;fill:rgb(5.098039%,31.372548%,37.647058%);fill-opacity:1;" d="M 430.039062 198.207031 C 424.570312 198.207031 420.140625 202.636719 420.140625 208.101562 C 420.140625 213.566406 424.570312 218 430.039062 218 C 435.503906 218 439.9375 213.566406 439.9375 208.101562 C 439.9375 202.636719 435.503906 198.207031 430.039062 198.207031 "/>
<path style=" stroke:none;fill-rule:nonzero;fill:rgb(5.098039%,31.372548%,37.647058%);fill-opacity:1;" d="M 450.871094 147.25 C 430.246094 133.683594 417.085938 157.269531 417.085938 157.269531 L 417.09375 157.335938 C 416.472656 158.503906 416.109375 159.828125 416.109375 161.242188 C 416.109375 165.863281 419.855469 169.613281 424.476562 169.613281 C 428.492188 169.613281 431.84375 166.785156 432.65625 163.011719 L 432.664062 163.011719 C 436.515625 154.09375 443.566406 161.988281 436.148438 169.734375 C 429.242188 176.941406 428.816406 181.832031 428.816406 181.832031 L 428.847656 181.84375 C 428.671875 182.441406 428.570312 183.070312 428.570312 183.726562 C 428.570312 187.402344 431.554688 190.382812 435.230469 190.382812 C 437.710938 190.382812 439.871094 189.027344 441.015625 187.015625 L 441.035156 187.023438 C 443.722656 181.648438 447.0625 180.5 452.277344 178.53125 C 459.242188 175.90625 469.078125 159.226562 450.871094 147.25 "/>
<path style=" stroke:none;fill-rule:nonzero;fill:rgb(81.344604%,90.354919%,29.08783%);fill-opacity:1;" d="M 428.710938 98.296875 C 428.664062 98.269531 427.574219 97.511719 427.574219 90.867188 L 427.574219 87.386719 C 427.761719 86.605469 427.890625 85.890625 427.960938 85.242188 C 428.03125 84.5625 428.0625 83.367188 428.066406 81.578125 C 428.769531 74.472656 429.765625 69.191406 431.027344 65.886719 C 432.636719 61.644531 433.746094 61.597656 433.757812 61.597656 C 434.019531 61.597656 436.304688 61.933594 436.308594 73.460938 L 435.824219 81.949219 C 435.449219 85.128906 434.269531 88.761719 432.300781 92.769531 C 429.855469 97.992188 428.671875 98.269531 428.710938 98.296875 Z M 441.832031 115.980469 C 441.832031 115.382812 441.585938 114.804688 441.097656 114.253906 C 440.753906 113.867188 440.335938 113.507812 439.851562 113.1875 C 439.378906 112.871094 438.902344 112.613281 438.433594 112.421875 C 437.863281 112.179688 437.363281 112.066406 436.90625 112.066406 C 434.40625 112.066406 432.71875 111.554688 431.886719 110.546875 C 430.984375 109.460938 430.539062 108.109375 430.523438 106.417969 L 430.875 103.851562 L 431.242188 103.070312 C 433.902344 101.871094 436.386719 97.554688 439.007812 89.613281 C 441.664062 81.636719 443.011719 73.90625 443.011719 66.644531 C 443.011719 63.160156 442.519531 60.027344 441.566406 57.363281 C 440.585938 54.421875 439.269531 52.570312 437.535156 51.703125 C 435.96875 50.917969 434.464844 50.519531 433.070312 50.519531 C 428.160156 50.519531 424.859375 53.988281 423.261719 60.828125 C 422.539062 63.921875 421.941406 66.808594 421.480469 69.414062 C 421.015625 72.03125 420.648438 74.492188 420.386719 76.730469 C 420.121094 78.976562 419.9375 81.277344 419.835938 83.574219 C 419.738281 85.839844 419.6875 88.195312 419.6875 90.574219 C 419.6875 94.890625 419.789062 97.601562 419.988281 98.785156 L 420.277344 101.570312 C 420.273438 102.066406 420.214844 102.648438 420.101562 103.296875 C 419.972656 104.035156 419.8125 104.855469 419.609375 105.808594 L 419.019531 109.257812 C 418.996094 109.378906 418.996094 109.503906 419.007812 109.625 C 419.175781 111.167969 420.1875 111.71875 421.074219 111.71875 C 421.664062 111.71875 422.355469 111.484375 423.324219 110.957031 C 423.347656 110.941406 423.371094 110.929688 423.398438 110.914062 L 425.769531 114.976562 C 425.847656 115.109375 425.949219 115.230469 426.070312 115.332031 C 427.4375 116.484375 428.902344 117.34375 430.429688 117.890625 C 431.953125 118.433594 433.734375 118.710938 435.726562 118.710938 C 437.550781 118.710938 441.832031 118.710938 441.832031 115.980469 "/>
<path style=" stroke:none;fill-rule:nonzero;fill:rgb(81.344604%,90.354919%,29.08783%);fill-opacity:1;" d="M 457.070312 111.351562 C 457.070312 110.460938 456.570312 109.292969 454.199219 108.765625 C 453.410156 108.488281 452.828125 107.984375 452.417969 107.230469 C 451.925781 106.054688 451.671875 104.617188 451.664062 102.957031 L 452.625 94.636719 C 453.355469 90.378906 453.726562 86.890625 453.726562 84.269531 C 453.726562 82.730469 453.230469 81.453125 452.25 80.46875 C 451.261719 79.480469 450.097656 78.976562 448.800781 78.976562 C 448.730469 78.976562 448.65625 78.984375 448.585938 78.992188 C 447.433594 79.171875 446.480469 79.636719 445.746094 80.371094 C 444.949219 81.164062 444.5625 82.347656 444.566406 83.882812 L 443.785156 94.976562 C 443.652344 96.355469 443.488281 98.011719 443.292969 99.941406 C 443.09375 101.917969 442.992188 103.667969 442.992188 105.148438 C 442.992188 107.105469 442.992188 113.0625 446.792969 114.113281 C 448.789062 114.757812 450.28125 115.066406 451.359375 115.066406 C 456.328125 115.066406 457.070312 112.738281 457.070312 111.351562 "/>
<path style=" stroke:none;fill-rule:nonzero;fill:rgb(81.344604%,90.354919%,29.08783%);fill-opacity:1;" d="M 451.984375 66.777344 C 451.410156 66.703125 450.992188 66.667969 450.671875 66.667969 C 449.007812 66.667969 447.613281 67.304688 446.636719 68.507812 C 445.71875 69.636719 445.253906 70.964844 445.253906 72.53125 C 445.332031 73.894531 445.679688 75.019531 446.28125 75.878906 C 446.328125 75.941406 446.375 76.003906 446.433594 76.058594 C 447.285156 76.910156 448.390625 77.472656 449.71875 77.722656 C 449.753906 77.730469 449.789062 77.734375 449.824219 77.738281 L 450.710938 77.835938 C 450.761719 77.84375 450.8125 77.847656 450.867188 77.847656 C 452.527344 77.847656 453.921875 77.210938 454.902344 76.003906 C 455.820312 74.878906 456.285156 73.550781 456.285156 72.058594 C 456.285156 70.878906 456.058594 69.941406 455.585938 69.1875 C 455.152344 68.492188 454.617188 67.9375 453.988281 67.53125 C 453.359375 67.128906 452.6875 66.875 451.984375 66.777344 "/>
<path style=" stroke:none;fill-rule:nonzero;fill:rgb(81.344604%,90.354919%,29.08783%);fill-opacity:1;" d="M 480.484375 102.957031 C 483.671875 94.507812 485.289062 85.570312 485.289062 76.394531 C 485.289062 72.945312 482.949219 72.675781 482.230469 72.675781 C 482.160156 72.675781 482.085938 72.679688 482.015625 72.691406 C 480.398438 72.941406 479.613281 73.796875 479.246094 74.464844 C 478.804688 75.253906 478.582031 76.164062 478.582031 77.179688 C 478.582031 84.828125 477.742188 91.523438 476.085938 97.074219 C 473.851562 104.300781 472.316406 104.382812 472.300781 104.386719 C 472.296875 104.382812 471.730469 104.125 471.183594 102.050781 C 470.625 99.941406 470.34375 96.839844 470.34375 92.890625 L 470.738281 82.695312 C 470.738281 81.078125 470.316406 79.949219 469.449219 79.242188 C 468.671875 78.609375 467.644531 78.289062 466.402344 78.289062 C 465.167969 78.289062 463.921875 78.652344 462.695312 79.363281 C 460.871094 80.421875 460.492188 81.761719 460.492188 82.695312 C 460.492188 93.792969 461.253906 102.128906 462.753906 107.476562 C 464.429688 113.445312 466.683594 116.347656 469.644531 116.347656 C 473.679688 116.347656 477.226562 111.960938 480.484375 102.957031 "/>
<path style=" stroke:none;fill-rule:nonzero;fill:rgb(81.344604%,90.354919%,29.08783%);fill-opacity:1;" d="M 500.382812 85.957031 C 501.476562 83.8125 502.632812 82.632812 503.644531 82.632812 C 503.804688 82.632812 503.96875 82.65625 504.179688 82.71875 C 505.535156 83.085938 506.488281 83.753906 507.089844 84.757812 C 507.757812 85.871094 508.078125 87.128906 508.078125 88.605469 C 508.078125 91.332031 507.234375 93.921875 505.554688 96.328125 C 504.046875 98.566406 502.398438 99.65625 500.519531 99.65625 C 500.195312 99.65625 499.898438 99.613281 499.605469 99.523438 C 499.425781 99.46875 499.234375 99.332031 499.042969 99.121094 C 498.886719 98.953125 498.660156 98.613281 498.449219 97.949219 C 498.261719 97.363281 498.167969 96.539062 498.167969 95.496094 C 498.167969 92.234375 498.917969 89.015625 500.382812 85.957031 Z M 492.46875 82.636719 C 490.234375 87.511719 489.101562 93 489.101562 98.941406 C 489.101562 101.792969 489.398438 104.449219 489.976562 106.835938 C 490.566406 109.273438 491.472656 111.421875 492.671875 113.222656 C 493.902344 115.074219 495.492188 116.535156 497.390625 117.558594 C 499.296875 118.585938 501.539062 119.105469 504.058594 119.105469 C 506.894531 119.105469 509.390625 118.160156 511.421875 116.339844 C 513.558594 114.640625 514.972656 112.40625 515.632812 109.691406 C 515.640625 109.660156 515.648438 109.628906 515.652344 109.597656 C 515.90625 108.066406 515.347656 107.132812 514.832031 106.609375 C 514.144531 105.925781 513.273438 105.566406 512.316406 105.566406 C 510.371094 105.566406 509.621094 106.765625 509.558594 107.851562 C 509.15625 109.863281 508.472656 111.324219 507.535156 112.1875 C 506.613281 113.03125 505.539062 113.441406 504.253906 113.441406 C 502.664062 113.441406 501.21875 112.773438 499.894531 111.449219 C 498.535156 109.917969 497.875 108.210938 497.875 106.230469 C 497.875 105.402344 499.480469 104.261719 503.988281 103.527344 C 509.648438 102.621094 513.050781 96.339844 514.382812 84.316406 C 514.390625 84.269531 514.390625 84.222656 514.390625 84.171875 C 514.390625 82.105469 513.398438 80.472656 511.582031 79.484375 L 507.023438 76.664062 C 505.355469 75.390625 503.628906 74.742188 501.894531 74.742188 C 498.109375 74.742188 494.941406 77.394531 492.46875 82.636719 "/>
<path style=" stroke:none;fill-rule:nonzero;fill:rgb(81.344604%,90.354919%,29.08783%);fill-opacity:1;" d="M 526.09375 98.820312 C 526.902344 103.539062 529.152344 104.53125 530.898438 104.53125 C 532.027344 104.53125 532.996094 104.273438 533.777344 103.765625 C 534.445312 103.335938 535.234375 102.476562 535.234375 100.8125 C 535.234375 100.757812 535.230469 100.699219 535.226562 100.644531 L 534.542969 95.386719 C 534.480469 94.640625 534.449219 93.78125 534.449219 92.839844 L 534.449219 89.488281 C 534.449219 84.871094 534.9375 80.125 535.886719 75.421875 L 539.527344 60.15625 C 539.550781 60.054688 539.5625 59.953125 539.5625 59.851562 L 539.5625 58.667969 C 539.5625 55.9375 538.964844 53.816406 537.789062 52.363281 C 536.53125 50.8125 534.976562 50.027344 533.160156 50.027344 C 533.101562 50.027344 533.042969 50.03125 532.984375 50.039062 C 531.671875 50.203125 530.539062 50.671875 529.617188 51.425781 C 528.636719 52.226562 528.011719 53.398438 527.753906 54.96875 L 525.976562 70.324219 L 525.285156 84.863281 C 525.285156 91.019531 525.558594 95.714844 526.09375 98.820312 "/>
<path style=" stroke:none;fill-rule:nonzero;fill:rgb(81.344604%,90.354919%,29.08783%);fill-opacity:1;" d="M 536.148438 108.125 C 534.992188 106.753906 533.390625 106.058594 531.390625 106.058594 C 529.265625 106.058594 527.636719 106.699219 526.546875 107.96875 C 525.515625 109.164062 524.992188 110.636719 524.992188 112.335938 C 524.992188 113.957031 525.523438 115.429688 526.570312 116.722656 C 526.589844 116.746094 526.609375 116.773438 526.632812 116.796875 C 527.886719 118.132812 529.488281 118.808594 531.390625 118.808594 C 533.515625 118.808594 535.144531 118.167969 536.238281 116.898438 C 537.269531 115.703125 537.792969 114.230469 537.792969 112.53125 C 537.792969 110.90625 537.238281 109.421875 536.148438 108.125 "/>
<path style=" stroke:none;fill-rule:nonzero;fill:rgb(81.344604%,90.354919%,29.08783%);fill-opacity:1;" d="M 73.640625 112.804688 L 73.640625 105.03125 C 72.355469 105.515625 71.203125 105.753906 70.183594 105.753906 C 68.945312 105.753906 68.15625 105.519531 67.8125 105.046875 C 67.46875 104.574219 67.292969 103.644531 67.292969 102.261719 L 67.292969 87.011719 L 73.640625 87.011719 L 73.640625 78.910156 L 67.292969 78.910156 L 67.292969 65.320312 L 56.28125 73.386719 L 56.28125 78.910156 L 51.898438 78.910156 L 51.898438 87.011719 L 56.28125 87.011719 L 56.28125 105.417969 C 56.28125 111.527344 59.296875 114.582031 65.335938 114.582031 C 68.042969 114.582031 70.8125 113.992188 73.640625 112.804688 "/>
<path style=" stroke:none;fill-rule:nonzero;fill:rgb(81.344604%,90.354919%,29.08783%);fill-opacity:1;" d="M 96.699219 94.09375 C 97.839844 91.964844 99.289062 90.582031 101.046875 89.953125 C 102.804688 89.324219 105.074219 89.007812 107.855469 89.007812 L 107.855469 78.398438 C 107.164062 78.378906 106.570312 78.363281 106.074219 78.363281 C 103.078125 78.363281 100.480469 79.304688 98.285156 81.179688 C 96.085938 83.054688 94.679688 85.277344 94.0625 87.847656 L 94.0625 78.910156 L 77.988281 78.910156 L 77.988281 87.011719 L 83.972656 87.011719 L 83.972656 105.972656 L 77.59375 105.972656 L 77.59375 114.074219 L 101.867188 114.074219 L 101.867188 105.972656 L 94.988281 105.972656 L 94.988281 101.648438 C 94.988281 98.746094 95.558594 96.226562 96.699219 94.09375 "/>
<path style=" stroke:none;fill-rule:nonzero;fill:rgb(81.344604%,90.354919%,29.08783%);fill-opacity:1;" d="M 129.488281 78.910156 L 113.238281 78.910156 L 113.238281 87.011719 L 118.476562 87.011719 L 118.476562 105.972656 L 113.238281 105.972656 L 113.238281 114.074219 L 134.621094 114.074219 L 134.621094 105.972656 L 129.488281 105.972656 L 129.488281 78.910156 "/>
<path style=" stroke:none;fill-rule:nonzero;fill:rgb(81.344604%,90.354919%,29.08783%);fill-opacity:1;" d="M 119.867188 73.136719 C 121.054688 74.34375 122.46875 74.949219 124.105469 74.949219 C 125.769531 74.949219 127.191406 74.351562 128.367188 73.15625 C 129.542969 71.960938 130.132812 70.519531 130.132812 68.828125 C 130.132812 67.136719 129.546875 65.6875 128.382812 64.480469 C 127.21875 63.273438 125.792969 62.671875 124.105469 62.671875 C 122.445312 62.671875 121.023438 63.273438 119.847656 64.480469 C 118.671875 65.6875 118.085938 67.136719 118.085938 68.828125 C 118.085938 70.492188 118.679688 71.929688 119.867188 73.136719 "/>
<path style=" stroke:none;fill-rule:nonzero;fill:rgb(81.344604%,90.354919%,29.08783%);fill-opacity:1;" d="M 173.078125 87.011719 L 177.996094 87.011719 L 177.996094 78.910156 L 159.714844 78.910156 L 159.714844 87.011719 L 164.246094 87.011719 L 157.90625 103.015625 L 152.5 87.011719 L 156.789062 87.011719 L 156.789062 78.910156 L 135.867188 78.910156 L 135.867188 87.011719 L 140.859375 87.011719 L 152.515625 114.582031 L 161.886719 114.582031 L 173.078125 87.011719 "/>
<path style=" stroke:none;fill-rule:nonzero;fill:rgb(81.344604%,90.354919%,29.08783%);fill-opacity:1;" d="M 187.550781 73.136719 C 188.738281 74.34375 190.152344 74.949219 191.789062 74.949219 C 193.453125 74.949219 194.875 74.351562 196.050781 73.15625 C 197.226562 71.960938 197.8125 70.519531 197.8125 68.828125 C 197.8125 67.136719 197.230469 65.6875 196.066406 64.480469 C 194.902344 63.273438 193.476562 62.671875 191.789062 62.671875 C 190.128906 62.671875 188.707031 63.273438 187.53125 64.480469 C 186.355469 65.6875 185.769531 67.136719 185.769531 68.828125 C 185.769531 70.492188 186.359375 71.929688 187.550781 73.136719 "/>
<path style=" stroke:none;fill-rule:nonzero;fill:rgb(81.344604%,90.354919%,29.08783%);fill-opacity:1;" d="M 202.304688 114.074219 L 202.304688 105.972656 L 197.171875 105.972656 L 197.171875 78.910156 L 180.921875 78.910156 L 180.921875 87.011719 L 186.160156 87.011719 L 186.160156 105.972656 L 180.921875 105.972656 L 180.921875 114.074219 L 202.304688 114.074219 "/>
<path style=" stroke:none;fill-rule:nonzero;fill:rgb(81.344604%,90.354919%,29.08783%);fill-opacity:1;" d="M 221.730469 107.609375 C 220.421875 107.609375 219.351562 107.148438 218.523438 106.226562 C 217.691406 105.308594 217.273438 104.207031 217.273438 102.921875 C 217.273438 101.492188 217.792969 100.402344 218.824219 99.652344 C 219.859375 98.902344 221.003906 98.527344 222.265625 98.527344 C 223.855469 98.527344 225.984375 99.375 228.644531 101.070312 L 228.644531 103.9375 C 226.078125 106.386719 223.773438 107.609375 221.730469 107.609375 Z M 245.21875 114.074219 L 245.21875 105.972656 L 239.65625 105.972656 L 239.65625 93.148438 C 239.65625 89.90625 239.4375 87.5625 238.996094 86.121094 C 238.558594 84.679688 237.804688 83.355469 236.734375 82.140625 C 235.664062 80.929688 234.039062 79.945312 231.851562 79.179688 C 229.664062 78.417969 226.910156 78.035156 223.582031 78.035156 C 215.003906 78.035156 209.433594 80.8125 206.867188 86.355469 L 215.742188 87.992188 C 217.5 86.152344 219.613281 85.230469 222.085938 85.230469 C 224.082031 85.230469 225.675781 85.804688 226.863281 86.953125 C 228.050781 88.105469 228.644531 89.578125 228.644531 91.367188 L 228.644531 93.511719 C 225.652344 92.328125 223 91.734375 220.695312 91.734375 C 216.5625 91.734375 213.1875 92.871094 210.574219 95.148438 C 207.960938 97.425781 206.652344 100.246094 206.652344 103.613281 C 206.652344 106.953125 207.894531 109.621094 210.378906 111.605469 C 212.859375 113.589844 215.8125 114.582031 219.234375 114.582031 C 222.539062 114.582031 225.675781 113.488281 228.644531 111.296875 L 228.644531 114.074219 L 245.21875 114.074219 "/>
<path style=" stroke:none;fill-rule:nonzero;fill:rgb(60.639954%,82.743835%,19.857788%);fill-opacity:1;" d="M 269.382812 112.804688 L 269.382812 105.03125 C 268.101562 105.515625 266.945312 105.753906 265.925781 105.753906 C 264.6875 105.753906 263.898438 105.519531 263.554688 105.046875 C 263.210938 104.574219 263.039062 103.644531 263.039062 102.261719 L 263.039062 87.011719 L 269.382812 87.011719 L 269.382812 78.910156 L 263.039062 78.910156 L 263.039062 65.320312 L 252.023438 73.386719 L 252.023438 78.910156 L 247.640625 78.910156 L 247.640625 87.011719 L 252.023438 87.011719 L 252.023438 105.417969 C 252.023438 111.527344 255.042969 114.582031 261.078125 114.582031 C 263.785156 114.582031 266.554688 113.992188 269.382812 112.804688 "/>
<path style=" stroke:none;fill-rule:nonzero;fill:rgb(60.639954%,82.743835%,19.857788%);fill-opacity:1;" d="M 281.074219 73.136719 C 282.261719 74.34375 283.675781 74.949219 285.3125 74.949219 C 286.976562 74.949219 288.398438 74.351562 289.574219 73.15625 C 290.75 71.960938 291.339844 70.519531 291.339844 68.828125 C 291.339844 67.136719 290.753906 65.6875 289.589844 64.480469 C 288.425781 63.273438 287 62.671875 285.3125 62.671875 C 283.652344 62.671875 282.230469 63.273438 281.054688 64.480469 C 279.878906 65.6875 279.289062 67.136719 279.289062 68.828125 C 279.289062 70.492188 279.886719 71.929688 281.074219 73.136719 "/>
<path style=" stroke:none;fill-rule:nonzero;fill:rgb(60.639954%,82.743835%,19.857788%);fill-opacity:1;" d="M 290.695312 78.910156 L 274.445312 78.910156 L 274.445312 87.011719 L 279.683594 87.011719 L 279.683594 105.972656 L 274.445312 105.972656 L 274.445312 114.074219 L 295.828125 114.074219 L 295.828125 105.972656 L 290.695312 105.972656 L 290.695312 78.910156 "/>
<path style=" stroke:none;fill-rule:nonzero;fill:rgb(60.639954%,82.743835%,19.857788%);fill-opacity:1;" d="M 368.894531 114.074219 L 368.894531 105.972656 L 363.191406 105.972656 L 363.191406 92.566406 C 363.191406 88.886719 362.859375 86.136719 362.191406 84.320312 C 361.527344 82.503906 360.296875 81.058594 358.503906 79.980469 C 356.710938 78.902344 354.375 78.363281 351.5 78.363281 C 346.652344 78.363281 342.007812 79.960938 337.566406 83.160156 C 335.117188 79.960938 331.671875 78.363281 327.230469 78.363281 C 323.523438 78.363281 319.789062 79.503906 316.039062 81.777344 L 316.039062 78.910156 L 299.320312 78.910156 L 299.320312 87.011719 L 305.023438 87.011719 L 305.023438 105.972656 L 299.320312 105.972656 L 299.320312 114.074219 L 321.738281 114.074219 L 321.738281 105.972656 L 316.039062 105.972656 L 316.039062 90.351562 C 319.054688 88.753906 321.726562 87.953125 324.058594 87.953125 C 327.050781 87.953125 328.546875 89.90625 328.546875 93.804688 L 328.546875 114.074219 L 345.265625 114.074219 L 345.265625 105.972656 L 339.5625 105.972656 L 339.5625 90.351562 C 342.414062 88.753906 345.0625 87.953125 347.507812 87.953125 C 350.621094 87.953125 352.179688 89.796875 352.179688 93.476562 L 352.179688 114.074219 L 368.894531 114.074219 "/>
<path style=" stroke:none;fill-rule:nonzero;fill:rgb(60.639954%,82.743835%,19.857788%);fill-opacity:1;" d="M 383.363281 92.566406 C 384.027344 87.847656 386.382812 85.484375 390.421875 85.484375 C 392.582031 85.484375 394.289062 86.175781 395.539062 87.554688 C 396.789062 88.9375 397.542969 90.605469 397.800781 92.566406 Z M 407.207031 88.679688 C 406.089844 85.65625 404.09375 83.121094 401.222656 81.089844 C 398.34375 79.054688 394.9375 78.035156 390.992188 78.035156 C 385.550781 78.035156 381.070312 79.855469 377.554688 83.484375 C 374.039062 87.117188 372.28125 91.648438 372.28125 97.074219 C 372.28125 102.402344 373.984375 106.699219 377.394531 109.96875 C 380.804688 113.238281 385.550781 114.875 391.632812 114.875 C 399.261719 114.875 404.867188 112.003906 408.457031 106.265625 L 399.902344 103.46875 C 397.214844 106.226562 394.554688 107.609375 391.917969 107.609375 C 389.898438 107.609375 387.980469 106.941406 386.160156 105.609375 C 384.34375 104.277344 383.351562 102.015625 383.1875 98.816406 L 408.882812 98.816406 C 408.882812 95.089844 408.324219 91.710938 407.207031 88.679688 "/>
</g>
</svg>
